SplineFontDB: 3.0
FontName: Muli-Bold
FullName: Muli Bold
FamilyName: Muli
Weight: Bold
Copyright: Copyright (c) 2011-13 by vernon adams.
Version: 
FONDName: Muli
ItalicAngle: 0
UnderlinePosition: 0
UnderlineWidth: 0
Ascent: 1638
Descent: 410
UFOAscent: 1463
UFODescent: -400
LayerCount: 2
Layer: 0 0 "Back"  1
Layer: 1 0 "Fore"  0
OS2Version: 0
OS2_WeightWidthSlopeOnly: 0
OS2_UseTypoMetrics: 0
CreationTime: 1362293119
ModificationTime: 1362293159
PfmFamily: 0
TTFWeight: 700
TTFWidth: 5
LineGap: 0
VLineGap: 0
OS2TypoAscent: 1978
OS2TypoAOffset: 0
OS2TypoDescent: -679
OS2TypoDOffset: 0
OS2TypoLinegap: 0
OS2WinAscent: 1978
OS2WinAOffset: 0
OS2WinDescent: 679
OS2WinDOffset: 0
HheadAscent: 0
HheadAOffset: 1
HheadDescent: 0
HheadDOffset: 1
OS2Vendor: 'newt'
DEI: 91125
LangName: 1033 "" "" "" "" "" "Version " "" "Muli Bold is a trademark of vernon adams." "Vernon Adams" "Vernon Adams" "Copyright (c) 2011-13 by vernon adams." "newtypography.co.uk" "newtypography.co.uk" "Copyright (c) 2013, vern,,, (<URL|email>),+AAoA-with Reserved Font Name Muli.+AAoACgAA-This Font Software is licensed under the SIL Open Font License, Version 1.1.+AAoA-This license is copied below, and is also available with a FAQ at:+AAoA-http://scripts.sil.org/OFL+AAoA" "http://scripts.sil.org/OFL" "" "" "" "Muli Bold" 
Encoding: UnicodeBmp
Compacted: 1
UnicodeInterp: none
NameList: AGL For New Fonts
DisplaySize: -48
AntiAlias: 1
FitToEm: 1
WinInfo: 0 21 11
BeginChars: 65537 420

StartChar: A
Encoding: 65 65 0
Width: 1462
VWidth: 0
GlyphClass: 2
Flags: W
LayerCount: 2
Fore
SplineSet
498 586 m 1
 946 586 l 1
 835 882 l 1
 724 1179 l 1
 611 882 l 1
 498 586 l 1
8 0 m 1
 609 1456 l 1
 848 1456 l 1
 1454 0 l 1
 1182 0 l 1
 1038 364 l 1
 414 364 l 1
 273 0 l 1
 8 0 l 1
EndSplineSet
EndChar

StartChar: AE
Encoding: 198 198 1
Width: 2250
VWidth: 0
GlyphClass: 2
Flags: W
LayerCount: 2
Fore
SplineSet
624 556 m 1
 1042 1209 l 1
 1046 1209 l 1
 1112 556 l 1
 624 556 l 1
8 0 m 1
 272 0 l 1
 510 364 l 1
 1134 364 l 1
 1181 0 l 1
 2144 0 l 1
 2114 207 l 1
 1422 207 l 1
 1357 641 l 1
 1983 641 l 1
 1953 849 l 1
 1326 849 l 1
 1266 1249 l 1
 1930 1249 l 1
 1900 1456 l 1
 986 1456 l 1
 8 0 l 1
EndSplineSet
EndChar

StartChar: B
Encoding: 66 66 13
Width: 1356
VWidth: 0
GlyphClass: 2
Flags: W
LayerCount: 2
Fore
SplineSet
434 852 m 1
 434 1249 l 1
 596 1249 l 2
 797 1249 916 1215 916 1057 c 0
 916 896 778 852 642 852 c 2
 434 852 l 1
436 207 m 1
 436 654 l 1
 654 654 l 2
 893 654 981 602 981 424 c 0
 981 280 869 207 665 207 c 2
 436 207 l 1
192 0 m 1
 708 0 l 2
 1070 0 1240 196 1240 414 c 0
 1240 588 1153 730 969 775 c 1
 1116 840 1173 957 1173 1088 c 0
 1173 1429 830 1456 576 1456 c 2
 192 1456 l 1
 192 0 l 1
EndSplineSet
EndChar

StartChar: C
Encoding: 67 67 14
Width: 1426
VWidth: 0
GlyphClass: 2
Flags: W
LayerCount: 2
Fore
SplineSet
815 -23 m 0
 1019 -23 1191 33 1327 140 c 1
 1246 339 l 1
 1118 237 972 184 835 184 c 0
 515 184 360 446 360 713 c 0
 360 991 515 1275 817 1275 c 0
 942 1275 1069 1228 1195 1140 c 1
 1290 1308 l 1
 1150 1429 991 1483 796 1483 c 0
 341 1483 106 1093 106 710 c 0
 106 340 337 -23 815 -23 c 0
EndSplineSet
EndChar

StartChar: D
Encoding: 68 68 21
Width: 1563
VWidth: 0
GlyphClass: 2
Flags: W
HStem: 0 207<436 436 436 634 634 647> 1249 207<436 560 192 583 192 784>
VStem: 1201 256<562.5 901.5>
LayerCount: 2
Fore
SplineSet
192 0 m 1
 634 0 l 2
 1169 0 1457 257 1457 733 c 0
 1457 1203 1143 1456 560 1456 c 2
 192 1456 l 1
 192 0 l 1
436 207 m 1
 436 1249 l 1
 583 1249 l 2
 985 1249 1201 1069 1201 734 c 0
 1201 391 1007 207 647 207 c 2
 436 207 l 1
EndSplineSet
EndChar

StartChar: E
Encoding: 69 69 24
Width: 1235
VWidth: 0
GlyphClass: 2
Flags: W
LayerCount: 2
Fore
SplineSet
192 0 m 1
 1131 0 l 1
 1131 207 l 1
 436 207 l 1
 436 641 l 1
 1065 641 l 1
 1065 849 l 1
 434 849 l 1
 434 1249 l 1
 1102 1249 l 1
 1102 1456 l 1
 192 1456 l 1
 192 0 l 1
EndSplineSet
EndChar

StartChar: Eng
Encoding: 330 330 35
Width: 1612
VWidth: 0
GlyphClass: 2
Flags: W
LayerCount: 2
Fore
SplineSet
192 0 m 1
 416 0 l 1
 416 1148 l 1
 538 968 l 1
 1189 89.682 l 1
 1189 -33 l 2
 1189 -241.357 1052.25 -278.176 886.98 -278.176 c 0
 800.508 -278.176 704.585 -259.883 613 -234 c 1
 581 -421 l 1
 695.1 -449.491 800.329 -463.82 894.893 -463.82 c 0
 1219.97 -463.82 1419 -324.482 1419 21 c 2
 1419 170 l 1
 1419 517 l 1
 1419 1456 l 1
 1189 1456 l 1
 1189 428 l 1
 1069 605 l 1
 449 1456 l 1
 192 1456 l 1
 192 0 l 1
EndSplineSet
EndChar

StartChar: Eth
Encoding: 208 208 37
Width: 1505
VWidth: 0
GlyphClass: 2
Flags: W
LayerCount: 2
Fore
SplineSet
26 795 m 1
 26 660 l 1
 643 660 l 1
 643 795 l 1
 26 795 l 1
EndSplineSet
Refer: 21 68 N 1 0 0 1 0 0 2
EndChar

StartChar: F
Encoding: 70 70 38
Width: 1159
VWidth: 0
GlyphClass: 2
Flags: W
LayerCount: 2
Fore
SplineSet
192 0 m 1
 435 0 l 1
 435 636 l 1
 1046 636 l 1
 1046 844 l 1
 435 844 l 1
 435 1249 l 1
 1079 1249 l 1
 1079 1456 l 1
 192 1456 l 1
 192 0 l 1
EndSplineSet
EndChar

StartChar: G
Encoding: 71 71 39
Width: 1548
VWidth: 0
GlyphClass: 2
Flags: W
LayerCount: 2
Fore
SplineSet
850 -23 m 0
 1018 -23 1192 11 1372 92 c 1
 1368 788 l 1
 778 788 l 1
 778 581 l 1
 1121 581 l 1
 1121 460 1123 341 1123 227 c 1
 1040 201 947 184 861 184 c 0
 522 184 358 404 358 715 c 0
 358 1004 532 1275 876 1275 c 0
 1071 1275 1188 1220 1261 1168 c 1
 1358 1338 l 1
 1282 1395 1149 1483 874 1483 c 0
 388 1483 106 1129 106 704 c 0
 106 267 362 -23 850 -23 c 0
EndSplineSet
EndChar

StartChar: H
Encoding: 72 72 44
Width: 1554
VWidth: 0
GlyphClass: 2
Flags: W
LayerCount: 2
Fore
SplineSet
192 0 m 1
 437 0 l 1
 437 643 l 1
 1123 643 l 1
 1123 0 l 1
 1362 0 l 1
 1362 1456 l 1
 1119 1456 l 1
 1119 851 l 1
 433 851 l 1
 433 1456 l 1
 192 1456 l 1
 192 0 l 1
EndSplineSet
EndChar

StartChar: Hbar
Encoding: 294 294 45
Width: 1554
VWidth: 0
GlyphClass: 2
Flags: W
LayerCount: 2
Fore
SplineSet
1461 1228 m 1
 93 1228 l 1
 93 1057 l 1
 1461 1057 l 1
 1461 1228 l 1
EndSplineSet
Refer: 44 72 N 1 0 0 1 0 0 2
EndChar

StartChar: I
Encoding: 73 73 47
Width: 591
VWidth: 0
GlyphClass: 2
Flags: W
LayerCount: 2
Fore
SplineSet
175 0 m 1
 415 0 l 1
 415 1456 l 1
 175 1456 l 1
 175 0 l 1
EndSplineSet
EndChar

StartChar: J
Encoding: 74 74 60
Width: 966
VWidth: 0
GlyphClass: 2
Flags: W
LayerCount: 2
Fore
SplineSet
373 -331 m 0
 624 -331 771 -174 771 121 c 2
 771 1456 l 1
 523 1456 l 1
 523 112 l 2
 523 -35 481 -127 331 -127 c 0
 273 -127 200 -114 108 -85 c 1
 66 -270 l 1
 180 -311 284 -331 373 -331 c 0
EndSplineSet
EndChar

StartChar: K
Encoding: 75 75 62
Width: 1339
VWidth: 0
GlyphClass: 2
Flags: W
LayerCount: 2
Fore
SplineSet
192 0 m 1
 436 0 l 1
 436 639 l 1
 1037 0 l 1
 1350 0 l 1
 616 752 l 1
 1301 1456 l 1
 999 1456 l 1
 615 1046 526 951 434 855 c 1
 434 1456 l 1
 192 1456 l 1
 192 0 l 1
EndSplineSet
EndChar

StartChar: L
Encoding: 76 76 63
Width: 1159
VWidth: 0
GlyphClass: 2
Flags: W
LayerCount: 2
Fore
SplineSet
192 0 m 1
 1108 0 l 1
 1108 207 l 1
 434 207 l 1
 434 1456 l 1
 192 1456 l 1
 192 0 l 1
EndSplineSet
EndChar

StartChar: Lslash
Encoding: 321 321 67
Width: 1120
VWidth: 0
GlyphClass: 2
Flags: W
LayerCount: 2
Fore
SplineSet
166 0 m 1
 1074 0 l 1
 1074 205 l 1
 409 205 l 1
 409 735 l 1
 527 844 l 1
 527 1086 l 1
 407 958 l 1
 407 1443 l 1
 163 1443 l 1
 163 761 l 1
 39 643 l 1
 39 431 l 1
 166 548 l 1
 166 0 l 1
EndSplineSet
EndChar

StartChar: M
Encoding: 77 77 68
Width: 1991
VWidth: 0
GlyphClass: 2
Flags: W
LayerCount: 2
Fore
SplineSet
192 0 m 1
 425 0 l 1
 425 1041 l 1
 514 850 l 1
 908 0 l 1
 1086 0 l 1
 1479 854 l 1
 1571 1053 l 1
 1571 0 l 1
 1798 0 l 1
 1798 1456 l 1
 1505 1456 l 1
 1106 564 l 1
 998 323 l 1
 892 558 l 1
 486 1456 l 1
 192 1456 l 1
 192 0 l 1
EndSplineSet
EndChar

StartChar: N
Encoding: 78 78 69
Width: 1612
VWidth: 0
GlyphClass: 2
Flags: W
LayerCount: 2
Fore
SplineSet
192 0 m 1
 416 0 l 1
 416 1098 l 1
 538 918 l 1
 1161 0 l 1
 1419 0 l 1
 1419 1456 l 1
 1189 1456 l 1
 1189 358 l 1
 1069 535 l 1
 449 1456 l 1
 192 1456 l 1
 192 0 l 1
EndSplineSet
EndChar

StartChar: O
Encoding: 79 79 74
Width: 1662
VWidth: 0
GlyphClass: 2
Flags: W
LayerCount: 2
Fore
SplineSet
835 -23 m 0
 1289 -23 1556 283 1556 722 c 0
 1556 1182 1280 1483 838 1483 c 0
 379 1483 106 1166 106 731 c 0
 106 271 380 -23 835 -23 c 0
830 184 m 0
 521 184 367 421 367 725 c 0
 367 1019 529 1276 834 1276 c 0
 1139 1276 1293 1040 1293 733 c 0
 1293 420 1139 184 830 184 c 0
EndSplineSet
EndChar

StartChar: OE
Encoding: 338 338 75
Width: 2107
VWidth: 0
GlyphClass: 2
Flags: W
LayerCount: 2
Fore
SplineSet
771 167 m 0
 546 167 367 416 367 725 c 0
 367 1019 547 1275 766 1275 c 0
 869 1275 982 1253 1091 1201 c 1
 1091 238 l 1
 983 189 872 167 771 167 c 0
720 -24 m 0
 837 -24 966 0 1091 54 c 1
 1091 0 l 1
 1951 0 l 1
 1951 207 l 1
 1335 207 l 1
 1335 641 l 1
 1885 641 l 1
 1885 849 l 1
 1333 849 l 1
 1333 1249 l 1
 1922 1249 l 1
 1922 1456 l 1
 1091 1456 l 1
 1091 1402 l 1
 971 1457 844 1482 727 1482 c 0
 390 1482 106 1134 106 731 c 0
 106 300 378 -24 720 -24 c 0
EndSplineSet
EndChar

StartChar: Omega
Encoding: 937 937 85
Width: 1603
VWidth: 0
GlyphClass: 2
Flags: W
LayerCount: 2
Fore
SplineSet
81 0 m 1
 673 0 l 1
 668 163 l 1
 474 290 340 506 340 749 c 0
 340 1037 522 1239 783 1239 c 0
 1067 1239 1211 1010 1211 746 c 0
 1211 503 1069 295 877 163 c 1
 883 0 l 1
 1438 0 l 1
 1459 196 l 1
 1381 196 1292 194 1210 194 c 1
 1353 326 1464 512 1464 758 c 0
 1464 1144 1201 1437 785 1437 c 0
 384 1437 86 1176 86 768 c 0
 86 527 181 336 333 194 c 1
 36 196 l 1
 81 0 l 1
EndSplineSet
EndChar

StartChar: Oslash
Encoding: 216 216 86
Width: 1663
VWidth: 0
GlyphClass: 2
Flags: W
LayerCount: 2
Fore
SplineSet
479 -134 m 1
 1336 1493 l 1
 1200 1561 l 1
 343 -66 l 1
 479 -134 l 1
EndSplineSet
Refer: 74 79 N 1 0 0 1 0 0 2
EndChar

StartChar: P
Encoding: 80 80 88
Width: 1304
VWidth: 0
GlyphClass: 2
Flags: W
LayerCount: 2
Fore
SplineSet
434 851 m 1
 434 1249 l 1
 600 1249 l 2
 816 1249 967 1246 967 1048 c 0
 967 883 831 851 645 851 c 2
 434 851 l 1
192 0 m 1
 440 0 l 1
 434 642 l 1
 651 642 l 2
 997 642 1230 734 1230 1048 c 0
 1230 1423 937 1456 593 1456 c 2
 192 1456 l 1
 192 0 l 1
EndSplineSet
EndChar

StartChar: Q
Encoding: 81 81 89
Width: 1662
VWidth: 0
GlyphClass: 2
Flags: W
LayerCount: 2
Fore
SplineSet
1254 -443 m 1
 1389 -298 l 1
 1389 -298 1217 -134 1136 35 c 1
 923 -8 l 1
 1050 -260 1254 -443 1254 -443 c 1
EndSplineSet
Refer: 74 79 N 1 0 0 1 0 0 2
EndChar

StartChar: R
Encoding: 82 82 90
Width: 1386
VWidth: 0
GlyphClass: 2
Flags: W
LayerCount: 2
Fore
SplineSet
435 828 m 1
 435 1249 l 1
 664 1249 l 2
 835 1249 968 1211 968 1045 c 0
 968 874 803 828 650 828 c 2
 435 828 l 1
192 0 m 1
 438 0 l 1
 438 623 l 1
 657 623 l 2
 795 623 846 570 902 422 c 1
 1058 0 l 1
 1326 0 l 1
 1225 235 l 1
 1225 235 1072 634 990 701 c 0
 987 704 983 706 980 709 c 1
 1131 779 1224 901 1224 1058 c 0
 1224 1453 815 1456 573 1456 c 2
 192 1456 l 1
 192 0 l 1
EndSplineSet
EndChar

StartChar: S
Encoding: 83 83 96
Width: 1254
VWidth: 0
GlyphClass: 2
Flags: W
LayerCount: 2
Fore
SplineSet
622 -23 m 0
 889 -23 1146 92 1146 389 c 0
 1146 640 989 734 686 851 c 0
 482 930 371 965 371 1089 c 0
 371 1225 525 1275 657 1275 c 0
 767 1275 902 1250 998 1158 c 1
 1128 1318 l 1
 1019 1423 892 1483 623 1483 c 0
 343 1483 113 1342 113 1080 c 0
 113 831 295 751 565 646 c 0
 779 563 889 511 889 393 c 0
 889 254 791 184 608 184 c 0
 484 184 301 245 213 315 c 1
 112 144 l 1
 208 49 416 -23 622 -23 c 0
EndSplineSet
EndChar

StartChar: T
Encoding: 84 84 102
Width: 1174
VWidth: 0
GlyphClass: 2
Flags: W
LayerCount: 2
Fore
SplineSet
463 0 m 1
 704 0 l 1
 704 1249 l 1
 1163 1249 l 1
 1163 1456 l 1
 11 1456 l 1
 11 1249 l 1
 463 1249 l 1
 463 0 l 1
EndSplineSet
EndChar

StartChar: Tbar
Encoding: 358 358 103
Width: 1174
VWidth: 0
GlyphClass: 2
Flags: W
LayerCount: 2
Fore
SplineSet
886 802 m 1
 268 802 l 1
 268 631 l 1
 886 631 l 1
 886 802 l 1
EndSplineSet
Refer: 102 84 N 1 0 0 1 0 0 2
EndChar

StartChar: Thorn
Encoding: 222 222 106
Width: 1296
VWidth: 0
GlyphClass: 2
Flags: W
LayerCount: 2
Fore
SplineSet
431 538 m 1
 431 1015 l 1
 614 1015 l 2
 828 1015 958 970 958 774 c 0
 958 609 843 538 659 538 c 2
 431 538 l 1
192 0 m 1
 431 0 l 1
 431 331 l 1
 626 331 l 2
 944 331 1218 462 1218 774 c 0
 1218 1145 945 1220 602 1220 c 2
 433 1220 l 1
 433 1443 l 1
 192 1443 l 1
 192 0 l 1
EndSplineSet
EndChar

StartChar: U
Encoding: 85 85 107
Width: 1506
VWidth: 0
GlyphClass: 2
Flags: W
LayerCount: 2
Fore
SplineSet
753 -23 m 0
 1226 -23 1341 240 1341 570 c 2
 1341 1456 l 1
 1092 1456 l 1
 1092 553 l 2
 1092 259 956 184 753 184 c 0
 550 184 414 259 414 553 c 2
 414 1456 l 1
 165 1456 l 1
 165 570 l 2
 165 240 280 -23 753 -23 c 0
EndSplineSet
EndChar

StartChar: V
Encoding: 86 86 120
Width: 1378
VWidth: 0
GlyphClass: 2
Flags: W
LayerCount: 2
Fore
SplineSet
569 0 m 1
 811 0 l 1
 1372 1456 l 1
 1119 1456 l 1
 791 571 l 1
 695 311 l 1
 600 572 l 1
 278 1456 l 1
 6 1456 l 1
 569 0 l 1
EndSplineSet
EndChar

StartChar: W
Encoding: 87 87 121
Width: 2103
VWidth: 0
GlyphClass: 2
Flags: W
LayerCount: 2
Fore
SplineSet
436 0 m 1
 703 0 l 1
 1051 1142 l 1
 1393 0 l 1
 1667 0 l 1
 2088 1456 l 1
 1834 1456 l 1
 1610 597 l 1
 1535 308 l 1
 1445 596 l 1
 1174 1456 l 1
 941 1456 l 1
 678 605 l 1
 588 312 l 1
 508 606 l 1
 276 1456 l 1
 14 1456 l 1
 436 0 l 1
EndSplineSet
EndChar

StartChar: X
Encoding: 88 88 126
Width: 1376
VWidth: 0
GlyphClass: 2
Flags: W
LayerCount: 2
Fore
SplineSet
1068 0 m 1
 1367 0 l 1
 1284 120 1188 257 841 748 c 1
 1355 1456 l 1
 1075 1456 l 1
 701 946 l 1
 600 1090 481 1258 341 1456 c 1
 43 1456 l 1
 549 737 l 1
 9 0 l 1
 297 0 l 1
 689 539 l 1
 1068 0 l 1
EndSplineSet
EndChar

StartChar: Y
Encoding: 89 89 127
Width: 1303
VWidth: 0
GlyphClass: 2
Flags: W
LayerCount: 2
Fore
SplineSet
524 0 m 1
 765 0 l 1
 765 584 l 1
 1314 1456 l 1
 1034 1456 l 1
 969 1343 649 797 649 797 c 1
 263 1456 l 1
 -11 1456 l 1
 524 582 l 1
 524 0 l 1
EndSplineSet
EndChar

StartChar: Z
Encoding: 90 90 132
Width: 1222
VWidth: 0
GlyphClass: 2
Flags: W
LayerCount: 2
Fore
SplineSet
28 0 m 1
 1151 0 l 1
 1151 207 l 1
 356 207 l 1
 1153 1330 l 1
 1153 1456 l 1
 55 1456 l 1
 55 1249 l 1
 820 1249 l 1
 28 130 l 1
 28 0 l 1
EndSplineSet
EndChar

StartChar: a
Encoding: 97 97 136
Width: 1270
VWidth: 0
GlyphClass: 2
Flags: W
LayerCount: 2
Fore
SplineSet
624 168 m 0
 420 168 335 317 335 515 c 0
 335 717 426 861 624 861 c 0
 822 861 911 717 911 515 c 0
 911 318 828 168 624 168 c 0
593 -23 m 0
 706 -23 837 32 898 155 c 1
 898 0 l 1
 1134 0 l 1
 1134 1026 l 1
 903 1026 l 1
 903 891 l 1
 847 1001 727 1052 593 1052 c 0
 255 1052 100 781 100 504 c 0
 100 254 254 -23 593 -23 c 0
EndSplineSet
EndChar

StartChar: acute
Encoding: 180 180 140
Width: 607
VWidth: 0
GlyphClass: 2
Flags: W
LayerCount: 2
Fore
SplineSet
45 1168 m 1
 259 1168 l 1
 607 1483 l 1
 304 1483 l 1
 45 1168 l 1
EndSplineSet
EndChar

StartChar: ae
Encoding: 230 230 143
Width: 1807
VWidth: 0
GlyphClass: 2
Flags: W
LayerCount: 2
Fore
SplineSet
959 636 m 1
 989 771 1076 869 1219 869 c 0
 1328 869 1421 795 1442 646 c 0
 1442 643 1443 639 1443 636 c 1
 959 636 l 1
469 167 m 0
 374 167 291 204 291 302 c 0
 291 431 447 445 616 447 c 2
 726 448 l 1
 723 304 664 167 469 167 c 0
459 -23 m 0
 613 -23 767 52 840 198 c 1
 926 64 1063 -23 1244 -23 c 0
 1391 -23 1515 19 1628 107 c 1
 1560 292 l 1
 1460 210 1355 168 1251 168 c 0
 1081 168 972 258 956 454 c 0
 956 462 955 470 955 478 c 1
 1644 478 l 1
 1648 494 1649 512 1649 523 c 0
 1649 818 1512 1052 1207 1052 c 0
 1059 1052 943 985 864 881 c 1
 801 1000 635 1052 551 1052 c 0
 368 1052 232 1001 140 920 c 1
 208 736 l 1
 311 830 428 861 531 861 c 0
 661 861 725 750 726 637 c 1
 687 637 l 2
 270 637 61 567 61 292 c 0
 61 89 221 -23 459 -23 c 0
EndSplineSet
EndChar

StartChar: ampersand
Encoding: 38 38 147
Width: 1670
VWidth: 0
GlyphClass: 2
Flags: W
LayerCount: 2
Fore
SplineSet
645 934 m 1
 578 997 537 1059 537 1134 c 0
 537 1217 600 1254 680 1254 c 0
 745 1254 820 1224 820 1136 c 0
 820 1053 740 989 645 934 c 1
667 173 m 0
 495 173 369 273 369 413 c 0
 369 551 478 627 599 691 c 1
 993 304 l 1
 908 231 809 173 667 173 c 0
666 -27 m 0
 868 -27 1029 55 1143 156 c 1
 1248 54 1317 4 1461 -17 c 1
 1650 129 l 1
 1452 172 1393 196 1290 296 c 1
 1402 451 1473 672 1473 874 c 1
 1240 919 l 1
 1240 753 1206 596 1126 462 c 1
 795 795 l 1
 940 880 1065 998 1065 1145 c 0
 1065 1350 868 1444 670 1444 c 0
 463 1444 291 1341 291 1139 c 0
 291 1020 355 940 456 838 c 1
 276 740 116 623 116 412 c 0
 116 136 355 -27 666 -27 c 0
EndSplineSet
EndChar

StartChar: approxequal
Encoding: 8776 8776 149
Width: 1351
VWidth: 0
GlyphClass: 2
Flags: W
LayerCount: 2
Fore
SplineSet
303 232 m 1
 328 335 373 399 442 399 c 0
 478 399 537 371 591 343 c 1
 692 283 780 246 862 246 c 0
 1044 246 1139 365 1183 540 c 1
 1001 587 l 1
 964 483 924 422 866 422 c 0
 833 422 778 463 708 490 c 1
 628 532 536 577 441 577 c 0
 278 577 161 463 113 283 c 1
 303 232 l 1
305 587 m 1
 335 681 375 750 437 750 c 0
 480 750 531 722 587 688 c 0
 694 623 768 596 861 596 c 0
 1039 596 1140 711 1182 890 c 1
 1000 933 l 1
 962 829 922 768 865 768 c 0
 832 768 771 794 695 837 c 1
 603 892 530 924 440 924 c 0
 271 924 152 810 112 628 c 1
 305 587 l 1
EndSplineSet
EndChar

StartChar: asciicircum
Encoding: 94 94 151
Width: 1458
VWidth: 0
GlyphClass: 2
Flags: W
LayerCount: 2
Fore
SplineSet
163 517 m 1
 404 517 l 1
 502 712 612 934 723 1138 c 1
 1058 517 l 1
 1295 517 l 1
 802 1405 l 1
 650 1405 l 1
 163 517 l 1
EndSplineSet
EndChar

StartChar: asciitilde
Encoding: 126 126 152
Width: 1459
VWidth: 0
GlyphClass: 2
Flags: W
LayerCount: 2
Fore
SplineSet
365 343 m 1
 389 438 439 535 515 535 c 0
 560 535 717 463 717 463 c 1
 799 421 884 383 948 383 c 0
 1122 383 1238 515 1277 693 c 1
 1077 754 l 1
 1056 663 1006 576 946 576 c 0
 917 576 795 633 795 633 c 1
 705 675 596 726 509 726 c 0
 331 726 212 583 182 431 c 1
 365 343 l 1
EndSplineSet
EndChar

StartChar: asterisk
Encoding: 42 42 153
Width: 1065
VWidth: 0
GlyphClass: 2
Flags: W
LayerCount: 2
Fore
SplineSet
678 663 m 1
 857 783 l 1
 651 1012 l 1
 921 1120 l 1
 841 1292 l 1
 596 1175 l 1
 626 1456 l 1
 404 1456 l 1
 434 1175 l 1
 189 1292 l 1
 109 1120 l 1
 379 1012 l 1
 173 783 l 1
 352 663 l 1
 515 906 l 1
 678 663 l 1
EndSplineSet
EndChar

StartChar: at
Encoding: 64 64 154
Width: 1896
VWidth: 0
GlyphClass: 2
Flags: W
LayerCount: 2
Fore
SplineSet
986 -114 m 0
 1196 -114 1396 -46 1555 74 c 1
 1485 177 l 1
 1335 85 1166 38 1004 38 c 0
 668 38 332 238 332 660 c 0
 332 1110 664 1339 1030 1339 c 0
 1323 1339 1601 1156 1601 793 c 0
 1601 536 1471 368 1384 368 c 0
 1341 368 1308 411 1308 506 c 0
 1308 540 1312 581 1321 628 c 2
 1415 1114 l 1
 1207 1114 l 1
 1185 980 l 1
 1153 1104 1073 1157 979 1157 c 0
 782 1157 523 929 523 616 c 0
 523 368 667 246 826 246 c 0
 985 246 1091 382 1147 538 c 1
 1144 517 1142 496 1142 476 c 0
 1142 350 1206 246 1367 246 c 0
 1593 246 1758 524 1758 787 c 0
 1758 1196 1427 1482 1006 1482 c 0
 536 1482 138 1172 138 660 c 0
 138 184 508 -114 986 -114 c 0
876 430 m 0
 796 430 753 492 753 585 c 0
 753 753 862 963 1017 963 c 0
 1095 963 1124 909 1124 816 c 0
 1124 622 1018 430 876 430 c 0
EndSplineSet
EndChar

StartChar: b
Encoding: 98 98 156
Width: 1277
VWidth: 0
GlyphClass: 2
Flags: W
LayerCount: 2
Fore
SplineSet
662 168 m 0
 472 168 372 328 372 515 c 0
 372 707 478 861 662 861 c 0
 846 861 930 707 930 515 c 0
 930 328 852 168 662 168 c 0
700 -23 m 0
 962 -23 1177 182 1177 508 c 0
 1177 802 994 1052 703 1052 c 0
 512 1052 403 939 385 887 c 1
 385 1463 l 1
 150 1463 l 1
 150 272 l 2
 150 243 149 215 142 0 c 1
 383 0 l 1
 383 136 l 1
 430 55 549 -23 700 -23 c 0
EndSplineSet
EndChar

StartChar: backslash
Encoding: 92 92 157
Width: 706
VWidth: 0
GlyphClass: 2
Flags: W
LayerCount: 2
Fore
SplineSet
557 -112 m 1
 802 -112 l 1
 134 1424 l 1
 -115 1424 l 1
 557 -112 l 1
EndSplineSet
EndChar

StartChar: bar
Encoding: 124 124 158
Width: 501
VWidth: 0
GlyphClass: 2
Flags: W
LayerCount: 2
Fore
SplineSet
138 -460 m 1
 363 -460 l 1
 363 1512 l 1
 138 1512 l 1
 138 -460 l 1
EndSplineSet
EndChar

StartChar: braceleft
Encoding: 123 123 159
Width: 627
VWidth: 0
GlyphClass: 2
Flags: W
LayerCount: 2
Fore
SplineSet
579 -187 m 1
 579 -2 l 1
 503 -1 440 7 439 131 c 1
 439 390 l 1
 438 540 372 596 298 642 c 1
 370 675 439 739 439 834 c 2
 439 1054 l 2
 439 1202 444 1297 582 1297 c 1
 580 1483 l 1
 255 1483 196 1314 196 1118 c 2
 196 908 l 2
 196 791 154 734 49 734 c 1
 49 566 l 1
 152 566 197 522 197 374 c 2
 197 169 l 2
 197 -40 256 -187 579 -187 c 1
EndSplineSet
EndChar

StartChar: braceright
Encoding: 125 125 160
Width: 627
VWidth: 0
GlyphClass: 2
Flags: W
LayerCount: 2
Fore
SplineSet
73 -194 m 1
 398 -194 457 -25 457 171 c 2
 457 381 l 2
 457 498 499 555 604 555 c 1
 604 723 l 1
 501 723 456 767 456 915 c 2
 456 1120 l 2
 456 1329 397 1476 74 1476 c 1
 74 1291 l 1
 150 1290 213 1282 214 1158 c 1
 214 899 l 1
 215 749 281 693 355 647 c 1
 283 614 214 550 214 455 c 2
 214 235 l 2
 214 87 209 -8 71 -8 c 1
 73 -194 l 1
EndSplineSet
EndChar

StartChar: bracketleft
Encoding: 91 91 161
Width: 628
VWidth: 0
GlyphClass: 2
Flags: W
LayerCount: 2
Fore
SplineSet
146 -243 m 1
 566 -243 l 1
 566 -63 l 1
 384 -63 l 1
 384 1244 l 1
 565 1244 l 1
 565 1424 l 1
 146 1424 l 1
 146 -243 l 1
EndSplineSet
EndChar

StartChar: bracketright
Encoding: 93 93 162
Width: 628
VWidth: 0
GlyphClass: 2
Flags: W
LayerCount: 2
Fore
SplineSet
50 -243 m 1
 465 -243 l 1
 465 1424 l 1
 50 1424 l 1
 50 1244 l 1
 226 1244 l 1
 226 -63 l 1
 50 -63 l 1
 50 -243 l 1
EndSplineSet
EndChar

StartChar: breve
Encoding: 728 728 163
Width: 629
VWidth: 0
GlyphClass: 2
Flags: W
LayerCount: 2
Fore
SplineSet
314 1162 m 0
 500 1162 612 1252 626 1447 c 1
 462 1447 l 1
 452 1352 376 1328 314 1328 c 0
 252 1328 176 1352 168 1447 c 1
 2 1447 l 1
 16 1252 128 1162 314 1162 c 0
EndSplineSet
EndChar

StartChar: breveinvertedcomb
Encoding: 785 785 164
Width: 629
VWidth: 0
GlyphClass: 2
Flags: W
LayerCount: 2
Fore
SplineSet
2 1162 m 1
 168 1162 l 1
 176 1257 252 1281 314 1281 c 0
 376 1281 452 1257 462 1162 c 1
 626 1162 l 1
 612 1357 500 1447 314 1447 c 0
 128 1447 16 1357 2 1162 c 1
EndSplineSet
EndChar

StartChar: brokenbar
Encoding: 166 166 165
Width: 500
VWidth: 0
GlyphClass: 2
Flags: W
LayerCount: 2
Fore
SplineSet
121 581 m 1
 348 581 l 1
 348 1512 l 1
 121 1512 l 1
 121 581 l 1
123 -460 m 1
 350 -460 l 1
 350 412 l 1
 123 412 l 1
 123 -460 l 1
EndSplineSet
EndChar

StartChar: bullet
Encoding: 8226 8226 166
Width: 989
VWidth: 0
GlyphClass: 2
Flags: W
LayerCount: 2
Fore
SplineSet
478 362 m 0
 669 362 838 515 838 690 c 0
 838 865 677 1010 479 1010 c 0
 290 1010 121 859 121 683 c 0
 121 511 275 362 478 362 c 0
EndSplineSet
EndChar

StartChar: c
Encoding: 99 99 167
Width: 1057
VWidth: 0
GlyphClass: 2
Flags: W
LayerCount: 2
Fore
SplineSet
629 -23 m 0
 771 -23 884 14 993 91 c 1
 921 264 l 1
 878 232 789 168 656 168 c 0
 459 168 345 302 345 507 c 0
 345 725 454 861 651 861 c 0
 764 861 839 816 898 764 c 1
 996 917 l 1
 911 1006 779 1052 623 1052 c 0
 293 1052 100 804 100 506 c 0
 100 219 290 -23 629 -23 c 0
EndSplineSet
EndChar

StartChar: caron
Encoding: 711 711 169
Width: 699
VWidth: 0
GlyphClass: 2
Flags: W
LayerCount: 2
Fore
SplineSet
254 1116 m 1
 448 1116 l 1
 720 1484 l 1
 476 1484 l 1
 344 1314 l 1
 214 1484 l 1
 -20 1484 l 1
 254 1116 l 1
EndSplineSet
EndChar

StartChar: cedilla
Encoding: 184 184 174
Width: 529
VWidth: 0
GlyphClass: 2
Flags: W
LayerCount: 2
Fore
SplineSet
240 -419 m 0
 410 -419 502 -328 502 -239 c 0
 502 -165 423 -91 253 -73 c 1
 271 31 l 1
 156 31 l 1
 125 -150 l 1
 146 -150 l 1
 267 -154 291 -187 291 -218 c 0
 291 -248 268 -277 222 -277 c 0
 185 -277 122 -269 43 -259 c 1
 29 -395 l 1
 106 -407 183 -419 240 -419 c 0
EndSplineSet
EndChar

StartChar: cent
Encoding: 162 162 175
Width: 1067
VWidth: 0
GlyphClass: 2
Flags: W
LayerCount: 2
Fore
SplineSet
553 -236 m 1
 705 -236 l 1
 705 1250 l 1
 553 1250 l 1
 553 -236 l 1
EndSplineSet
Refer: 167 99 N 1 0 0 1 0 0 2
EndChar

StartChar: circumflex
Encoding: 710 710 176
Width: 699
VWidth: 0
GlyphClass: 2
Flags: W
LayerCount: 2
Fore
SplineSet
-8 1116 m 1
 202 1116 l 1
 346 1292 l 1
 488 1116 l 1
 708 1116 l 1
 444 1485 l 1
 250 1485 l 1
 -8 1116 l 1
EndSplineSet
EndChar

StartChar: colon
Encoding: 58 58 177
Width: 541
VWidth: 0
GlyphClass: 2
Flags: W
LayerCount: 2
Fore
SplineSet
126 879 m 1
 415 879 l 1
 414 1141 l 1
 126 1141 l 1
 126 879 l 1
126 -11 m 1
 415 -11 l 1
 415 251 l 1
 126 251 l 1
 126 -11 l 1
EndSplineSet
EndChar

StartChar: comma
Encoding: 44 44 178
Width: 540
VWidth: 0
GlyphClass: 2
Flags: W
LayerCount: 2
Fore
SplineSet
30 -240 m 1
 229 -240 l 1
 406 259 l 1
 141 259 l 1
 30 -240 l 1
EndSplineSet
EndChar

StartChar: commaaccent
Encoding: 806 806 179
Width: 540
VWidth: 0
GlyphClass: 2
Flags: W
LayerCount: 2
Fore
SplineSet
81 -639 m 1
 281 -639 l 1
 459 -140 l 1
 193 -140 l 1
 81 -639 l 1
EndSplineSet
EndChar

StartChar: copyright
Encoding: 169 169 180
Width: 1829
VWidth: 0
GlyphClass: 2
Flags: W
LayerCount: 2
Fore
SplineSet
880 1363 m 0
 1257 1363 1547 1090 1547 728 c 0
 1547 371 1258 96 883 96 c 0
 505 96 215 372 215 733 c 0
 215 1091 503 1363 880 1363 c 0
877 1483 m 0
 437 1483 72 1141 72 733 c 0
 72 321 431 -23 885 -23 c 0
 1328 -23 1691 319 1691 730 c 0
 1691 1136 1328 1483 877 1483 c 0
900 287 m 0
 996 287 1098 314 1196 374 c 1
 1145 525 l 1
 1059 478 981 458 914 458 c 0
 751 458 651 576 651 722 c 0
 651 868 751 986 914 986 c 0
 981 986 1059 966 1145 919 c 1
 1196 1070 l 1
 1098 1130 996 1157 900 1157 c 0
 653 1157 443 989 443 722 c 0
 443 455 653 287 900 287 c 0
EndSplineSet
EndChar

StartChar: currency
Encoding: 164 164 181
Width: 1218
VWidth: 0
GlyphClass: 2
Flags: W
LayerCount: 2
Fore
SplineSet
609 710 m 0
 435 710 307 847 307 1021 c 0
 307 1195 435 1331 609 1331 c 0
 783 1331 911 1195 911 1021 c 0
 911 847 783 710 609 710 c 0
1048 543 m 1
 1099 594 l 1
 913 779 l 1
 969 846 1002 931 1002 1024 c 0
 1002 1122 966 1210 906 1278 c 1
 1099 1471 l 1
 1048 1522 l 1
 853 1327 l 1
 786 1378 702 1409 610 1409 c 0
 518 1409 433 1378 367 1326 c 1
 170 1522 l 1
 119 1471 l 1
 314 1276 l 1
 255 1209 219 1121 219 1024 c 0
 219 931 252 847 307 781 c 1
 120 594 l 1
 171 543 l 1
 358 730 l 1
 426 673 514 639 610 639 c 0
 706 639 794 673 862 729 c 1
 1048 543 l 1
EndSplineSet
EndChar

StartChar: d
Encoding: 100 100 182
Width: 1251
VWidth: 0
GlyphClass: 2
Flags: W
LayerCount: 2
Fore
SplineSet
613 168 m 0
 423 168 347 328 347 515 c 0
 347 707 429 861 613 861 c 0
 797 861 877 707 877 515 c 0
 877 328 803 168 613 168 c 0
567 -23 m 0
 755 -23 845 78 870 139 c 1
 872 0 l 1
 1113 0 l 1
 1106 215 1105 243 1105 272 c 2
 1105 1463 l 1
 870 1463 l 1
 870 910 l 1
 840 964 745 1052 584 1052 c 0
 263 1052 100 802 100 508 c 0
 100 182 305 -23 567 -23 c 0
EndSplineSet
EndChar

StartChar: dagger
Encoding: 8224 8224 183
Width: 1022
VWidth: 0
GlyphClass: 2
Flags: W
LayerCount: 2
Fore
SplineSet
398 106 m 1
 588 106 l 1
 588 875 l 1
 919 875 l 1
 919 1064 l 1
 588 1064 l 1
 588 1424 l 1
 398 1424 l 1
 398 1064 l 1
 72 1064 l 1
 72 875 l 1
 398 875 l 1
 398 106 l 1
EndSplineSet
EndChar

StartChar: daggerdbl
Encoding: 8225 8225 184
Width: 1022
VWidth: 0
GlyphClass: 2
Flags: W
LayerCount: 2
Fore
SplineSet
364 106 m 1
 607 106 l 1
 576 408 l 1
 908 408 l 1
 908 591 l 1
 576 591 l 1
 576 920 l 1
 917 920 l 1
 917 1110 l 1
 576 1110 l 1
 607 1424 l 1
 364 1424 l 1
 408 1110 l 1
 70 1110 l 1
 70 920 l 1
 408 920 l 1
 408 591 l 1
 66 591 l 1
 66 408 l 1
 408 408 l 1
 364 106 l 1
EndSplineSet
EndChar

StartChar: dblgravecomb
Encoding: 783 783 185
Width: 969
VWidth: 0
GlyphClass: 2
Flags: W
LayerCount: 2
Fore
SplineSet
720 1125 m 1
 890 1125 l 1
 690 1483 l 1
 422 1483 l 1
 720 1125 l 1
396 1125 m 1
 573 1125 l 1
 336 1483 l 1
 52 1483 l 1
 396 1125 l 1
EndSplineSet
EndChar

StartChar: dcroat
Encoding: 273 273 187
Width: 1251
VWidth: 0
GlyphClass: 2
Flags: W
LayerCount: 2
Fore
SplineSet
1215 1348 m 1
 598 1348 l 1
 598 1177 l 1
 1215 1177 l 1
 1215 1348 l 1
EndSplineSet
Refer: 182 100 N 1 0 0 1 0 0 2
EndChar

StartChar: degree
Encoding: 176 176 188
Width: 844
VWidth: 0
GlyphClass: 2
Flags: W
LayerCount: 2
Fore
SplineSet
398 802 m 0
 580 802 740 941 740 1108 c 0
 740 1279 579 1417 396 1417 c 0
 212 1417 52 1283 52 1116 c 0
 52 948 214 802 398 802 c 0
397 985 m 0
 318 985 248 1045 248 1116 c 0
 248 1187 318 1234 397 1234 c 0
 472 1234 541 1181 541 1112 c 0
 541 1040 477 985 397 985 c 0
EndSplineSet
EndChar

StartChar: dieresis
Encoding: 168 168 189
Width: 743
VWidth: 0
GlyphClass: 2
Flags: W
LayerCount: 2
Fore
SplineSet
476 1134 m 1
 711 1134 l 1
 711 1354 l 1
 476 1354 l 1
 476 1134 l 1
29 1134 m 1
 265 1134 l 1
 265 1354 l 1
 29 1354 l 1
 29 1134 l 1
EndSplineSet
EndChar

StartChar: divide
Encoding: 247 247 190
Width: 1458
VWidth: 0
GlyphClass: 2
Flags: W
LayerCount: 2
Fore
SplineSet
555 845 m 1
 842 845 l 1
 842 1107 l 1
 555 1107 l 1
 555 845 l 1
166 454 m 1
 1229 454 l 1
 1229 651 l 1
 166 651 l 1
 166 454 l 1
558 -13 m 1
 846 -13 l 1
 845 250 l 1
 558 250 l 1
 558 -13 l 1
EndSplineSet
EndChar

StartChar: dollar
Encoding: 36 36 191
Width: 1230
VWidth: 0
GlyphClass: 2
Flags: W
LayerCount: 2
Fore
SplineSet
584 -215 m 1
 669 -215 l 1
 669 1627 l 1
 584 1627 l 1
 584 -215 l 1
EndSplineSet
Refer: 96 83 N 1 0 0 1 0 0 2
EndChar

StartChar: dotaccent
Encoding: 729 729 192
Width: 524
VWidth: 0
GlyphClass: 2
Flags: W
LayerCount: 2
Fore
SplineSet
139 1187 m 1
 373 1187 l 1
 373 1406 l 1
 139 1406 l 1
 139 1187 l 1
EndSplineSet
EndChar

StartChar: dotaccentcomb
Encoding: 775 775 193
Width: 524
VWidth: 0
GlyphClass: 2
Flags: W
LayerCount: 2
Fore
SplineSet
145 1187 m 1
 379 1187 l 1
 379 1406 l 1
 145 1406 l 1
 145 1187 l 1
EndSplineSet
EndChar

StartChar: dotlessi
Encoding: 305 305 194
Width: 503
VWidth: 0
GlyphClass: 2
Flags: W
VStem: 123 237<0 1026 0 1026>
LayerCount: 2
Fore
SplineSet
123 0 m 1
 360 0 l 1
 360 1026 l 1
 123 1026 l 1
 123 0 l 1
EndSplineSet
EndChar

StartChar: dotlessj
Encoding: 567 567 195
Width: 503
VWidth: 0
GlyphClass: 2
Flags: W
LayerCount: 2
Fore
SplineSet
25 -402 m 0
 323 -402 363 -129 363 96 c 2
 363 1026 l 1
 128 1026 l 1
 128 62 l 2
 128 -119 69 -202 -17 -202 c 0
 -36 -202 -68 -198 -134 -183 c 1
 -134 -383 l 1
 -68 -396 -17 -402 25 -402 c 0
EndSplineSet
EndChar

StartChar: e
Encoding: 101 101 196
Width: 1183
VWidth: 0
GlyphClass: 2
Flags: W
LayerCount: 2
Fore
SplineSet
352 636 m 1
 383 771 479 869 627 869 c 0
 753 869 860 792 881 636 c 1
 352 636 l 1
652 -23 m 0
 811 -23 944 19 1066 107 c 1
 998 292 l 1
 889 210 772 168 659 168 c 0
 476 168 356 265 348 478 c 1
 1082 478 l 1
 1086 494 1087 512 1087 523 c 0
 1087 818 941 1052 615 1052 c 0
 288 1052 100 803 100 512 c 0
 100 197 306 -23 652 -23 c 0
EndSplineSet
EndChar

StartChar: eight
Encoding: 56 56 205
Width: 1264
VWidth: 0
GlyphClass: 2
Flags: W
LayerCount: 2
Fore
SplineSet
632 855 m 1
 493 890 408 976 408 1091 c 0
 408 1217 502 1276 631 1276 c 0
 753 1276 855 1213 855 1101 c 0
 855 978 769 893 632 855 c 1
633 184 m 0
 480 184 382 261 382 402 c 0
 382 539 490 643 638 675 c 1
 775 641 886 527 886 405 c 0
 886 253 783 184 633 184 c 0
636 -23 m 0
 895 -23 1132 121 1132 385 c 0
 1132 547 1020 693 873 761 c 1
 1010 824 1101 933 1101 1092 c 0
 1101 1336 917 1483 630 1483 c 0
 362 1483 164 1342 164 1101 c 0
 164 943 260 834 395 764 c 1
 233 691 132 558 132 392 c 0
 132 127 353 -23 636 -23 c 0
EndSplineSet
EndChar

StartChar: ellipsis
Encoding: 8230 8230 207
Width: 1620
VWidth: 0
GlyphClass: 2
Flags: W
LayerCount: 2
Fore
SplineSet
1169 -11 m 1
 1456 -11 l 1
 1456 251 l 1
 1169 251 l 1
 1169 -11 l 1
645 -11 m 1
 935 -11 l 1
 934 251 l 1
 645 251 l 1
 645 -11 l 1
121 -11 m 1
 411 -11 l 1
 410 251 l 1
 121 251 l 1
 121 -11 l 1
EndSplineSet
EndChar

StartChar: emdash
Encoding: 8212 8212 209
Width: 2171
VWidth: 0
GlyphClass: 2
Flags: W
LayerCount: 2
Fore
SplineSet
30 458 m 1
 2141 458 l 1
 2141 653 l 1
 30 653 l 1
 30 458 l 1
EndSplineSet
EndChar

StartChar: endash
Encoding: 8211 8211 210
Width: 1085
VWidth: 0
GlyphClass: 2
Flags: W
LayerCount: 2
Fore
SplineSet
-9 458 m 1
 1094 458 l 1
 1094 653 l 1
 -9 653 l 1
 -9 458 l 1
EndSplineSet
EndChar

StartChar: eng
Encoding: 331 331 211
Width: 1199
VWidth: 0
GlyphClass: 2
Flags: W
LayerCount: 2
Fore
SplineSet
1067 114 m 2
 1067 -231.483 867.971 -400.82 542.893 -400.82 c 0
 448.329 -400.82 343.1 -386.491 229 -358 c 1
 261 -171 l 1
 352.585 -196.883 448.507 -215.176 534.98 -215.176 c 0
 700.247 -215.176 831 -148.357 831 60 c 2
 831 592 l 2
 831 781 792 861 650 861 c 0
 543 861 396 764 396 620 c 2
 396 0 l 1
 160 0 l 1
 160 656 l 2
 160 883 142 1026 142 1026 c 1
 391 1026 l 1
 391 879 l 1
 452 995 591 1052 698 1052 c 0
 935 1052 1067 928 1067 580 c 2
 1067 114 l 2
EndSplineSet
EndChar

StartChar: equal
Encoding: 61 61 213
Width: 1459
VWidth: 0
GlyphClass: 2
Flags: W
LayerCount: 2
Fore
SplineSet
196 646 m 1
 1261 646 l 1
 1261 838 l 1
 196 838 l 1
 196 646 l 1
196 267 m 1
 1263 267 l 1
 1263 458 l 1
 196 458 l 1
 196 267 l 1
EndSplineSet
EndChar

StartChar: eth
Encoding: 240 240 214
Width: 1218
VWidth: 0
GlyphClass: 2
Flags: W
LayerCount: 2
Fore
SplineSet
601 168 m 0
 471 168 343 260 343 451 c 0
 343 628 462 706 588 706 c 0
 716 706 851 611 851 450 c 0
 851 265 725 168 601 168 c 0
585 -24 m 0
 909 -24 1102 170 1102 623 c 0
 1102 1276 514 1438 365 1456 c 1
 287 1303 l 1
 808 1184 848 902 873 809 c 0
 879 785 883 764 883 749 c 1
 789 859 670 904 547 904 c 0
 269 904 100 731 100 468 c 0
 100 204 286 -24 585 -24 c 0
357 1132 m 1
 424 1005 l 1
 1035 1330 l 1
 968 1457 l 1
 357 1132 l 1
EndSplineSet
EndChar

StartChar: euro
Encoding: 8364 8364 215
Width: 1190
VWidth: 0
GlyphClass: 2
Flags: W
LayerCount: 2
Fore
SplineSet
722 -21 m 0
 849 -21 967 13 1075 86 c 1
 1075 261 l 1
 929 205 817 182 736 182 c 0
 558 182 461 304 430 483 c 1
 932 483 l 1
 956 636 l 1
 414 636 l 1
 408 658 405 683 405 709 c 0
 405 736 408 763 411 786 c 1
 961 786 l 1
 988 929 l 1
 438 929 l 1
 487 1098 579 1222 747 1222 c 0
 842 1222 956 1186 1053 1120 c 1
 1099 1285 l 1
 1007 1378 888 1421 749 1421 c 0
 439 1421 247 1218 185 929 c 1
 69 929 l 1
 39 786 l 1
 161 786 l 1
 156 756 153 727 153 700 c 0
 153 677 156 655 161 636 c 1
 70 636 l 1
 44 483 l 1
 179 483 l 1
 228 183 394 -21 722 -21 c 0
EndSplineSet
EndChar

StartChar: exclam
Encoding: 33 33 216
Width: 737
VWidth: 0
GlyphClass: 2
Flags: W
LayerCount: 2
Fore
SplineSet
287 385 m 1
 427 385 l 1
 497 1456 l 1
 217 1456 l 1
 287 385 l 1
217 0 m 1
 496 0 l 1
 496 262 l 1
 217 262 l 1
 217 0 l 1
EndSplineSet
EndChar

StartChar: f
Encoding: 102 102 218
Width: 794
VWidth: 0
GlyphClass: 2
Flags: W
LayerCount: 2
Fore
SplineSet
255 0 m 1
 490 0 l 1
 490 868 l 1
 724 868 l 1
 724 1026 l 1
 490 1026 l 1
 490 1045 490 1062 491 1079 c 0
 496 1298 539 1301 724 1301 c 1
 732 1484 l 1
 680 1484 l 2
 330 1484 255 1359 255 1073 c 2
 255 1026 l 1
 66 1026 l 1
 66 868 l 1
 255 868 l 1
 255 0 l 1
EndSplineSet
EndChar

StartChar: fi
Encoding: 64257 64257 219
Width: 1198
VWidth: 0
GlyphClass: 2
Flags: W
LayerCount: 2
Fore
SplineSet
821 1254 m 1
 1043 1254 l 1
 1043 1463 l 1
 821 1463 l 1
 821 1254 l 1
261 0 m 1
 496 0 l 1
 496 868 l 1
 808 868 l 1
 808 0 l 1
 1043 0 l 1
 1043 1026 l 1
 496 1026 l 1
 496 1054 l 1
 498.633 1268.16 528.999 1281.25 666.206 1281.25 c 0
 685.325 1281.25 706.518 1281 730 1281 c 2
 738 1281 l 1
 738 1464 l 1
 686 1464 l 2
 336 1464 261 1339 261 1053 c 2
 261 1026 l 1
 72 1026 l 1
 72 868 l 1
 261 868 l 1
 261 0 l 1
EndSplineSet
EndChar

StartChar: five
Encoding: 53 53 220
Width: 1264
VWidth: 0
GlyphClass: 2
Flags: W
LayerCount: 2
Fore
SplineSet
620 -23 m 0
 889 -23 1139 148 1139 471 c 0
 1139 749 955 958 727 958 c 0
 625 958 526 936 468 863 c 1
 480 1249 l 1
 1069 1249 l 1
 1069 1456 l 1
 265 1456 l 1
 265 701 l 1
 504 672 l 1
 540 724 612 743 683 743 c 0
 815 743 890 616 890 475 c 0
 890 285 765 184 615 184 c 0
 506 184 383 237 287 352 c 1
 162 171 l 1
 287 40 457 -23 620 -23 c 0
EndSplineSet
EndChar

StartChar: fl
Encoding: 64258 64258 221
Width: 1217
VWidth: 0
GlyphClass: 2
Flags: W
LayerCount: 2
Fore
SplineSet
496 868 m 1
 730 868 l 1
 730 1026 l 1
 496 1026 l 1
 496 1102 l 2
 496 1236 535 1281 730 1281 c 2
 828 1281 l 1
 828 0 l 1
 1062 0 l 1
 1062 1463 l 1
 686 1463 l 2
 336 1463 261 1338 261 1053 c 2
 261 1026 l 1
 72 1026 l 1
 72 868 l 1
 261 868 l 1
 261 0 l 1
 496 0 l 1
 496 868 l 1
EndSplineSet
EndChar

StartChar: florin
Encoding: 402 402 222
Width: 1634
VWidth: 0
GlyphClass: 2
Flags: W
LayerCount: 2
Fore
SplineSet
442 -312 m 0
 658 -312 769 -218 800 55 c 2
 870 674 l 1
 1043 674 l 1
 1043 871 l 1
 903 871 l 1
 916 989 l 2
 927 1090 965 1135 1025 1135 c 0
 1095 1135 1168 1114 1168 1114 c 1
 1168 1295 l 1
 1168 1295 1103 1338 981 1338 c 0
 716 1338 675 1137 662 993 c 2
 651 871 l 1
 520 871 l 1
 520 674 l 1
 623 674 l 1
 558 79 l 2
 541 -77 480 -117 423 -117 c 0
 380 -117 332 -107 332 -107 c 1
 332 -294 l 1
 383 -309 436 -312 442 -312 c 0
EndSplineSet
EndChar

StartChar: four
Encoding: 52 52 223
Width: 1264
VWidth: 0
GlyphClass: 2
Flags: W
LayerCount: 2
Fore
SplineSet
341 579 m 1
 660 1023 l 1
 734 1125 l 1
 734 579 l 1
 341 579 l 1
731 0 m 1
 979 0 l 1
 979 393 l 1
 1176 393 l 1
 1176 579 l 1
 975 579 l 1
 975 1456 l 1
 714 1456 l 1
 87 547 l 1
 87 393 l 1
 731 393 l 1
 731 0 l 1
EndSplineSet
EndChar

StartChar: foursuperior
Encoding: 8308 8308 224
Width: 897
VWidth: 0
GlyphClass: 2
Flags: W
LayerCount: 2
Fore
SplineSet
326 898 m 1
 414 1034 446 1085 472 1127 c 1
 472 898 l 1
 326 898 l 1
474 575 m 1
 662 575 l 1
 662 750 l 1
 778 750 l 1
 778 898 l 1
 662 898 l 1
 662 1385 l 1
 478 1385 l 1
 120 878 l 1
 120 750 l 1
 474 750 l 1
 474 575 l 1
EndSplineSet
EndChar

StartChar: fraction
Encoding: 8260 8260 225
Width: 368
VWidth: 0
GlyphClass: 2
Flags: W
LayerCount: 2
Fore
SplineSet
-378 0 m 1
 -143 0 l 1
 744 1456 l 1
 510 1456 l 1
 -378 0 l 1
EndSplineSet
EndChar

StartChar: g
Encoding: 103 103 226
Width: 1234
VWidth: 0
GlyphClass: 2
Flags: W
LayerCount: 2
Fore
SplineSet
616 179 m 0
 419 179 347 312 347 514 c 0
 347 700 436 861 619 861 c 0
 796 861 879 714 879 520 c 0
 879 350 820 179 616 179 c 0
571 -395 m 0
 1013 -395 1100 -91 1100 168 c 2
 1100 695 l 2
 1100 872 1118 1026 1118 1026 c 1
 869 1026 l 1
 869 880 l 1
 828 976 716 1052 597 1052 c 0
 268 1052 100 801 100 513 c 0
 100 205 308 0 597 0 c 0
 766 0 847 90 868 131 c 1
 868 66 l 2
 868 -118 747 -201 556 -201 c 0
 458 -201 338 -173 214 -92 c 1
 182 -302 l 1
 307 -366 435 -395 571 -395 c 0
EndSplineSet
EndChar

StartChar: germandbls
Encoding: 223 223 231
Width: 1307
VWidth: 0
GlyphClass: 2
Flags: W
LayerCount: 2
Fore
SplineSet
814 -23 m 0
 1017 -23 1212 121 1212 352 c 0
 1212 574 1033 717 840 788 c 0
 805 800 769 811 734 819 c 1
 768 829 800 841 831 857 c 0
 964 923 1058 1040 1058 1165 c 0
 1058 1341 892 1483 636 1483 c 0
 357 1483 195 1300 192 1035 c 1
 195 0 l 1
 432 0 l 1
 432 479 424 519 424 1005 c 0
 424 1143 499 1295 637 1295 c 0
 731 1295 798 1240 798 1149 c 0
 798 1036 695 937 578 887 c 1
 564 727 l 1
 771 609 952 494 952 334 c 0
 952 228 887 168 808 168 c 0
 747 168 659 217 564 327 c 1
 463 160 l 1
 563 34 696 -23 814 -23 c 0
EndSplineSet
EndChar

StartChar: grave
Encoding: 96 96 232
Width: 607
VWidth: 0
GlyphClass: 2
Flags: W
LayerCount: 2
Fore
SplineSet
345 1168 m 1
 559 1168 l 1
 300 1483 l 1
 -3 1483 l 1
 345 1168 l 1
EndSplineSet
EndChar

StartChar: greater
Encoding: 62 62 233
Width: 1458
VWidth: 0
GlyphClass: 2
Flags: W
LayerCount: 2
Fore
SplineSet
181 30 m 1
 1214 486 l 1
 1214 605 l 1
 186 1099 l 1
 186 883 l 1
 186 883 737 625 877 557 c 1
 181 251 l 1
 181 30 l 1
EndSplineSet
EndChar

StartChar: greaterequal
Encoding: 8805 8805 234
Width: 1351
VWidth: 0
GlyphClass: 2
Flags: W
LayerCount: 2
Fore
SplineSet
181 0 m 1
 1154 0 l 1
 1154 176 l 1
 181 176 l 1
 181 0 l 1
181 255 m 1
 1154 639 l 1
 1154 747 l 1
 181 1168 l 1
 181 967 l 1
 899 697 l 1
 181 464 l 1
 181 255 l 1
EndSplineSet
EndChar

StartChar: guillemotleft
Encoding: 171 171 235
Width: 1156
VWidth: 0
GlyphClass: 2
Flags: W
LayerCount: 2
Fore
SplineSet
801 160 m 1
 1042 160 l 1
 780 540 l 1
 1050 921 l 1
 807 921 l 1
 525 541 l 1
 801 160 l 1
381 160 m 1
 623 160 l 1
 359 540 l 1
 634 921 l 1
 387 921 l 1
 105 541 l 1
 381 160 l 1
EndSplineSet
EndChar

StartChar: guillemotright
Encoding: 187 187 236
Width: 1156
VWidth: 0
GlyphClass: 2
Flags: W
LayerCount: 2
Fore
SplineSet
504 160 m 1
 744 160 l 1
 1026 542 l 1
 749 921 l 1
 513 921 l 1
 770 544 l 1
 504 160 l 1
129 160 m 1
 375 160 l 1
 657 542 l 1
 379 921 l 1
 137 921 l 1
 400 542 l 1
 129 160 l 1
EndSplineSet
EndChar

StartChar: guilsinglleft
Encoding: 8249 8249 237
Width: 642
VWidth: 0
GlyphClass: 2
Flags: W
LayerCount: 2
Fore
SplineSet
335 160 m 1
 576 160 l 1
 314 540 l 1
 583 921 l 1
 339 921 l 1
 59 541 l 1
 335 160 l 1
EndSplineSet
EndChar

StartChar: guilsinglright
Encoding: 8250 8250 238
Width: 642
VWidth: 0
GlyphClass: 2
Flags: W
LayerCount: 2
Fore
SplineSet
59 160 m 1
 299 160 l 1
 582 542 l 1
 304 921 l 1
 70 921 l 1
 326 544 l 1
 59 160 l 1
EndSplineSet
EndChar

StartChar: h
Encoding: 104 104 239
Width: 1185
VWidth: 0
GlyphClass: 2
Flags: W
LayerCount: 2
Fore
SplineSet
142 0 m 1
 378 0 l 1
 378 619 l 2
 378 748 503 861 643 861 c 0
 767 861 816 785 816 586 c 2
 816 0 l 1
 1053 0 l 1
 1053 580 l 2
 1053 777 1002 1052 674 1052 c 0
 563 1052 433 990 378 888 c 1
 378 1463 l 1
 142 1463 l 1
 142 0 l 1
EndSplineSet
EndChar

StartChar: hbar
Encoding: 295 295 240
Width: 1185
VWidth: 0
GlyphClass: 2
Flags: W
LayerCount: 2
Fore
SplineSet
587 1348 m 1
 -30 1348 l 1
 -30 1177 l 1
 587 1177 l 1
 587 1348 l 1
EndSplineSet
Refer: 239 104 N 1 0 0 1 0 0 2
EndChar

StartChar: hungarumlaut
Encoding: 733 733 242
Width: 969
VWidth: 0
GlyphClass: 2
Flags: W
LayerCount: 2
Fore
SplineSet
385 1125 m 1
 562 1125 l 1
 906 1483 l 1
 622 1483 l 1
 385 1125 l 1
68 1125 m 1
 238 1125 l 1
 536 1483 l 1
 268 1483 l 1
 68 1125 l 1
EndSplineSet
EndChar

StartChar: hyphen
Encoding: 45 45 243
Width: 729
VWidth: 0
GlyphClass: 2
Flags: W
LayerCount: 2
Fore
SplineSet
56 458 m 1
 673 458 l 1
 673 639 l 1
 56 639 l 1
 56 458 l 1
EndSplineSet
EndChar

StartChar: i
Encoding: 105 105 244
Width: 517
VWidth: 0
GlyphClass: 2
Flags: W
LayerCount: 2
Fore
SplineSet
146 1226 m 1
 375 1226 l 1
 375 1435 l 1
 146 1435 l 1
 146 1226 l 1
146 0 m 1
 375 0 l 1
 375 1026 l 1
 146 1026 l 1
 146 0 l 1
EndSplineSet
EndChar

StartChar: increment
Encoding: 8710 8710 254
Width: 1309
VWidth: 0
GlyphClass: 2
Flags: W
LayerCount: 2
Fore
SplineSet
361 216 m 1
 456 486 550 745 645 1016 c 1
 747 740 840 490 942 216 c 1
 361 216 l 1
39 0 m 1
 1270 0 l 1
 1270 103 l 1
 767 1402 l 1
 543 1402 l 1
 39 103 l 1
 39 0 l 1
EndSplineSet
EndChar

StartChar: integral
Encoding: 8747 8747 255
Width: 702
VWidth: 0
GlyphClass: 2
Flags: W
LayerCount: 2
Fore
SplineSet
151 -411 m 0
 382 -411 469 -249 469 -29 c 2
 468 1337 l 2
 468 1449 484 1509 580 1509 c 0
 607 1509 660 1505 719 1478 c 1
 719 1674 l 1
 719 1674 592 1699 550 1699 c 0
 321 1699 230 1536 230 1316 c 2
 231 -49 l 2
 231 -161 215 -222 123 -222 c 0
 94 -222 38 -217 -16 -194 c 1
 -16 -385 l 1
 49 -400 99 -411 151 -411 c 0
EndSplineSet
EndChar

StartChar: j
Encoding: 106 106 258
Width: 563
VWidth: 0
GlyphClass: 2
Flags: W
LayerCount: 2
Fore
SplineSet
196 1226 m 1
 431 1226 l 1
 431 1435 l 1
 196 1435 l 1
 196 1226 l 1
73 -362 m 0
 369 -362 431 -190 431 39 c 2
 431 1026 l 1
 196 1026 l 1
 196 62 l 2
 196 -125 156 -188 21 -188 c 0
 -5 -188 -33 -186 -66 -182 c 1
 -82 -351 l 1
 -22 -360 25 -362 73 -362 c 0
EndSplineSet
EndChar

StartChar: k
Encoding: 107 107 260
Width: 1072
VWidth: 0
GlyphClass: 2
Flags: W
LayerCount: 2
Fore
SplineSet
142 0 m 1
 377 0 l 1
 377 424 l 1
 791 0 l 1
 1104 0 l 1
 555 539 l 1
 1071 1026 l 1
 746 1026 l 1
 377 646 l 1
 377 1463 l 1
 142 1463 l 1
 142 0 l 1
EndSplineSet
EndChar

StartChar: kgreenlandic
Encoding: 312 312 262
Width: 1082
VWidth: 0
GlyphClass: 2
Flags: W
LayerCount: 2
Fore
SplineSet
150 0 m 1
 385 0 l 1
 385 399 l 1
 799 0 l 1
 1112 0 l 1
 759 321 887 211 563 509 c 1
 1077 1026 l 1
 756 1026 l 1
 385 618 l 1
 385 1026 l 1
 150 1026 l 1
 150 0 l 1
EndSplineSet
EndChar

StartChar: l
Encoding: 108 108 263
Width: 519
VWidth: 0
GlyphClass: 2
Flags: W
LayerCount: 2
Fore
SplineSet
146 0 m 1
 380 0 l 1
 380 1463 l 1
 146 1463 l 1
 146 0 l 1
EndSplineSet
EndChar

StartChar: less
Encoding: 60 60 267
Width: 1458
VWidth: 0
GlyphClass: 2
Flags: W
LayerCount: 2
Fore
SplineSet
1211 23 m 1
 1211 236 l 1
 1102 284 510 550 510 550 c 1
 1215 871 l 1
 1215 1088 l 1
 184 606 l 1
 184 495 l 1
 1211 23 l 1
EndSplineSet
EndChar

StartChar: lessequal
Encoding: 8804 8804 268
Width: 1351
VWidth: 0
GlyphClass: 2
Flags: W
LayerCount: 2
Fore
SplineSet
166 0 m 1
 1146 0 l 1
 1146 176 l 1
 166 176 l 1
 166 0 l 1
1146 255 m 1
 1146 464 l 1
 428 697 l 1
 1146 967 l 1
 1146 1168 l 1
 166 747 l 1
 166 639 l 1
 1146 255 l 1
EndSplineSet
EndChar

StartChar: logicalnot
Encoding: 172 172 269
Width: 1458
VWidth: 0
GlyphClass: 2
Flags: W
LayerCount: 2
Fore
SplineSet
1011 223 m 1
 1232 223 l 1
 1232 812 l 1
 169 812 l 1
 169 616 l 1
 1011 616 l 1
 1011 223 l 1
EndSplineSet
EndChar

StartChar: lozenge
Encoding: 9674 9674 271
Width: 1248
VWidth: 0
GlyphClass: 2
Flags: W
LayerCount: 2
Fore
SplineSet
518 -40 m 1
 672 -40 l 1
 1123 701 l 1
 679 1442 l 1
 524 1442 l 1
 77 700 l 1
 518 -40 l 1
596 208 m 1
 308 700 l 1
 603 1179 l 1
 891 700 l 1
 596 208 l 1
EndSplineSet
EndChar

StartChar: lslash
Encoding: 322 322 272
Width: 503
VWidth: 0
GlyphClass: 2
Flags: W
LayerCount: 2
Fore
SplineSet
125 0 m 1
 362 0 l 1
 362 887 l 1
 473 987 l 1
 473 1197 l 1
 361 1100 l 1
 361 1463 l 1
 124 1463 l 1
 124 928 l 1
 6 828 l 1
 6 621 l 1
 125 721 l 1
 125 0 l 1
EndSplineSet
EndChar

StartChar: m
Encoding: 109 109 273
Width: 1836
VWidth: 0
GlyphClass: 2
Flags: W
LayerCount: 2
Fore
SplineSet
159 0 m 1
 395 0 l 1
 395 620 l 2
 395 745 516 861 655 861 c 0
 792 861 815 729 815 628 c 2
 815 0 l 1
 1051 0 l 1
 1051 582 l 2
 1051 719 1144 861 1301 861 c 0
 1466 861 1468 669 1468 553 c 2
 1468 0 l 1
 1704 0 l 1
 1704 629 l 2
 1704 885 1585 1052 1333 1052 c 0
 1177 1052 1061 963 980 861 c 1
 917 984 818 1052 689 1052 c 0
 562 1052 440 977 390 880 c 1
 390 1026 l 1
 142 1026 l 1
 145 954 159 868 159 705 c 2
 159 0 l 1
EndSplineSet
EndChar

StartChar: macron
Encoding: 175 175 274
Width: 728
VWidth: 0
GlyphClass: 2
Flags: W
LayerCount: 2
Fore
SplineSet
44 1196 m 1
 661 1196 l 1
 661 1367 l 1
 44 1367 l 1
 44 1196 l 1
EndSplineSet
EndChar

StartChar: minus
Encoding: 8722 8722 275
Width: 1458
VWidth: 0
GlyphClass: 2
Flags: W
LayerCount: 2
Fore
SplineSet
196 315 m 1
 1262 315 l 1
 1262 507 l 1
 196 507 l 1
 196 315 l 1
EndSplineSet
EndChar

StartChar: mu
Encoding: 956 956 276
Width: 1191
VWidth: 0
GlyphClass: 2
Flags: W
LayerCount: 2
Fore
SplineSet
132 -227 m 1
 372 -227 l 1
 372 24 l 1
 406 -5 471 -23 531 -23 c 0
 636 -23 757 28 806 152 c 1
 810 0 l 1
 1055 0 l 1
 1045 92 1041 166 1041 262 c 2
 1041 1026 l 1
 803 1026 l 1
 803 422 l 2
 803 227 716 167 564 167 c 0
 420 167 367 267 367 444 c 1
 363 1026 l 1
 132 1026 l 1
 132 -227 l 1
EndSplineSet
EndChar

StartChar: multiply
Encoding: 215 215 277
Width: 1264
VWidth: 0
GlyphClass: 2
Flags: W
LayerCount: 2
Fore
SplineSet
906 122 m 1
 1058 274 l 1
 784 548 l 1
 1058 822 l 1
 906 974 l 1
 632 701 l 1
 359 974 l 1
 206 821 l 1
 479 548 l 1
 206 275 l 1
 359 122 l 1
 632 395 l 1
 906 122 l 1
EndSplineSet
EndChar

StartChar: n
Encoding: 110 110 278
Width: 1199
VWidth: 0
GlyphClass: 2
Flags: W
LayerCount: 2
Fore
SplineSet
160 0 m 1
 396 0 l 1
 396 620 l 2
 396 764 543 861 650 861 c 0
 792 861 831 781 831 592 c 2
 831 0 l 1
 1067 0 l 1
 1067 580 l 2
 1067 928 935 1052 698 1052 c 0
 591 1052 452 995 391 879 c 1
 391 1026 l 1
 142 1026 l 1
 142 1026 160 883 160 656 c 2
 160 0 l 1
EndSplineSet
EndChar

StartChar: nine
Encoding: 57 57 283
Width: 1264
VWidth: 0
GlyphClass: 2
Flags: W
LayerCount: 2
Fore
SplineSet
363 998 m 0
 363 1162 464 1276 625 1276 c 0
 788 1276 880 1152 880 1012 c 0
 880 820 765 722 609 722 c 0
 441 722 363 842 363 998 c 0
566 -25 m 0
 921 -25 1135 290 1135 771 c 0
 1135 1228 945 1483 617 1483 c 0
 308 1483 116 1271 116 993 c 0
 116 714 297 521 584 521 c 0
 699 521 817 557 886 665 c 1
 886 633 l 2
 886 316 730 185 546 185 c 0
 457 185 362 216 275 271 c 1
 188 75 l 1
 327 7 454 -25 566 -25 c 0
EndSplineSet
EndChar

StartChar: notequal
Encoding: 8800 8800 284
Width: 1351
VWidth: 0
GlyphClass: 2
Flags: W
LayerCount: 2
Fore
SplineSet
476 37 m 1
 608 304 l 1
 1194 304 l 1
 1158 482 l 1
 696 482 l 1
 803 681 l 1
 1194 681 l 1
 1158 860 l 1
 888 860 l 1
 1004 1094 l 1
 802 1122 l 1
 674 860 l 1
 105 860 l 1
 143 681 l 1
 588 681 l 1
 484 482 l 1
 105 482 l 1
 141 304 l 1
 393 304 l 1
 280 66 l 1
 476 37 l 1
EndSplineSet
EndChar

StartChar: numbersign
Encoding: 35 35 286
Width: 1242
VWidth: 0
GlyphClass: 2
Flags: W
LayerCount: 2
Fore
SplineSet
495 608 m 1
 548 862 l 1
 746 862 l 1
 694 608 l 1
 495 608 l 1
209 55 m 1
 396 55 l 1
 470 454 l 1
 668 454 l 1
 595 55 l 1
 777 55 l 1
 855 454 l 1
 1120 454 l 1
 1128 608 l 1
 876 608 l 1
 928 862 l 1
 1184 862 l 1
 1196 1010 l 1
 956 1010 l 1
 1030 1393 l 1
 848 1393 l 1
 774 1010 l 1
 576 1010 l 1
 648 1393 l 1
 469 1393 l 1
 388 1010 l 1
 127 1010 l 1
 115 862 l 1
 368 862 l 1
 314 608 l 1
 56 608 l 1
 46 454 l 1
 289 454 l 1
 209 55 l 1
EndSplineSet
EndChar

StartChar: o
Encoding: 111 111 287
Width: 1268
VWidth: 0
GlyphClass: 2
Flags: W
LayerCount: 2
Fore
SplineSet
638 -23 m 0
 978 -23 1168 225 1168 511 c 0
 1168 807 990 1052 638 1052 c 0
 293 1052 100 805 100 513 c 0
 100 222 291 -23 638 -23 c 0
635 168 m 0
 431 168 346 328 346 515 c 0
 346 707 437 861 635 861 c 0
 833 861 922 707 922 515 c 0
 922 328 839 168 635 168 c 0
EndSplineSet
EndChar

StartChar: oe
Encoding: 339 339 293
Width: 1998
VWidth: 0
GlyphClass: 2
Flags: W
LayerCount: 2
Fore
SplineSet
631 -32 m 0
 790 -32 948 26 1015 136 c 1
 1089 30 1220 -32 1382 -32 c 0
 1563 -32 1733 53 1825 231 c 1
 1686 367 l 1
 1610 243 1502 167 1387 167 c 0
 1253 167 1167 264 1146 416 c 0
 1145 422 1145 429 1144 436 c 1
 1859 441 l 1
 1859 504 l 2
 1859 834 1676 1055 1382 1055 c 0
 1193 1055 1094 1002 1015 881 c 1
 942 989 822 1055 638 1055 c 0
 296 1055 100 804 100 511 c 0
 100 215 299 -32 631 -32 c 0
639 167 m 0
 437 167 346 322 346 508 c 0
 346 696 446 861 632 861 c 0
 823 861 900 709 900 511 c 0
 900 328 820 167 639 167 c 0
1146 636 m 1
 1172 753 1261 861 1394 861 c 0
 1520 861 1589 769 1606 638 c 1
 1606 636 l 1
 1146 636 l 1
EndSplineSet
EndChar

StartChar: ogonek
Encoding: 731 731 294
Width: 508
VWidth: 0
GlyphClass: 2
Flags: W
LayerCount: 2
Fore
SplineSet
244 -374 m 0
 316 -374 400 -360 482 -335 c 1
 482 -196 l 1
 454 -204 376 -230 316 -230 c 0
 274 -230 240 -217 240 -175 c 0
 240 -120 300 -35 394 20 c 1
 266 20 l 1
 186 -20 26 -94 26 -235 c 0
 26 -332 118 -374 244 -374 c 0
EndSplineSet
EndChar

StartChar: one
Encoding: 49 49 299
Width: 1264
VWidth: 0
GlyphClass: 2
Flags: W
LayerCount: 2
Fore
SplineSet
331 0 m 1
 1026 0 l 1
 1026 189 l 1
 804 189 l 1
 804 1483 l 1
 585 1445 l 1
 496 1395 398 1343 292 1303 c 1
 292 1084 l 1
 404 1128 483 1162 554 1197 c 1
 554 192 l 1
 331 192 l 1
 331 0 l 1
EndSplineSet
EndChar

StartChar: onehalf
Encoding: 189 189 300
Width: 2472
VWidth: 0
GlyphClass: 2
Flags: W
LayerCount: 2
Fore
SplineSet
640 0 m 1
 875 0 l 1
 1762 1409 l 1
 1528 1409 l 1
 640 0 l 1
1565 0 m 1
 2149 0 l 1
 2149 177 l 1
 1838 177 l 1
 2006 303 2160 432 2160 594 c 0
 2160 771 2027 849 1869 849 c 0
 1765 849 1649 815 1554 753 c 1
 1619 605 l 1
 1694 651 1786 683 1856 683 c 0
 1920 683 1966 657 1966 592 c 0
 1966 529 1908 436 1565 161 c 1
 1565 0 l 1
328 564 m 1
 743 564 l 1
 743 740 l 1
 628 740 l 1
 628 1406 l 1
 479 1385 l 1
 438 1362 386 1335 298 1306 c 1
 298 1107 l 1
 341 1122 403 1145 441 1162 c 1
 441 742 l 1
 328 742 l 1
 328 564 l 1
EndSplineSet
EndChar

StartChar: onequarter
Encoding: 188 188 301
Width: 2197
VWidth: 0
GlyphClass: 2
Flags: W
LayerCount: 2
Fore
SplineSet
297 564 m 1
 712 564 l 1
 712 740 l 1
 597 740 l 1
 597 1406 l 1
 448 1385 l 1
 407 1362 355 1335 267 1306 c 1
 267 1107 l 1
 310 1122 372 1145 410 1162 c 1
 410 742 l 1
 297 742 l 1
 297 564 l 1
601 0 m 1
 836 0 l 1
 1723 1409 l 1
 1489 1409 l 1
 601 0 l 1
1678 323 m 1
 1766 459 1798 510 1822 552 c 1
 1822 323 l 1
 1678 323 l 1
1824 0 m 1
 2012 0 l 1
 2012 175 l 1
 2128 175 l 1
 2128 323 l 1
 2014 323 l 1
 2014 810 l 1
 1830 810 l 1
 1470 303 l 1
 1470 175 l 1
 1824 175 l 1
 1824 0 l 1
EndSplineSet
EndChar

StartChar: onesuperior
Encoding: 185 185 302
Width: 1190
VWidth: 0
GlyphClass: 2
Flags: W
LayerCount: 2
Fore
SplineSet
230 564 m 1
 645 564 l 1
 645 740 l 1
 530 740 l 1
 530 1406 l 1
 381 1385 l 1
 340 1362 288 1335 200 1306 c 1
 200 1107 l 1
 243 1122 305 1145 343 1162 c 1
 343 742 l 1
 230 742 l 1
 230 564 l 1
EndSplineSet
EndChar

StartChar: ordfeminine
Encoding: 170 170 303
Width: 745
VWidth: 0
GlyphClass: 2
Flags: W
LayerCount: 2
Fore
SplineSet
297 838 m 0
 237 838 221 865 221 907 c 0
 221 1014 375 1024 489 1031 c 1
 483 928 377 838 297 838 c 0
258 716 m 0
 382 716 455 769 501 892 c 1
 516 747 l 1
 686 747 l 1
 681 793 675 818 675 1178 c 0
 675 1388 538 1448 380 1448 c 0
 262 1448 157 1430 83 1386 c 1
 147 1244 l 1
 217 1271 297 1295 361 1295 c 0
 436 1295 491 1263 491 1169 c 0
 491 1163 490 1156 490 1149 c 1
 176 1142 29 1061 29 909 c 0
 29 772 134 716 258 716 c 0
EndSplineSet
EndChar

StartChar: ordmasculine
Encoding: 186 186 304
Width: 824
VWidth: 0
GlyphClass: 2
Flags: W
LayerCount: 2
Fore
SplineSet
403 720 m 0
 645 720 779 884 779 1082 c 0
 779 1284 643 1447 400 1447 c 0
 159 1447 19 1288 19 1086 c 0
 19 878 150 720 403 720 c 0
400 884 m 0
 288 884 235 973 235 1084 c 0
 235 1191 296 1283 401 1283 c 0
 507 1283 564 1194 564 1081 c 0
 564 976 507 884 400 884 c 0
EndSplineSet
EndChar

StartChar: oslash
Encoding: 248 248 305
Width: 1268
VWidth: 0
GlyphClass: 2
Flags: W
LayerCount: 2
Fore
SplineSet
635 168 m 0
 603 168 574 172 548 179 c 1
 830 786 l 1
 892 723 922 625 922 515 c 0
 922 328 839 168 635 168 c 0
439 242 m 1
 375 306 346 406 346 515 c 0
 346 707 437 861 635 861 c 0
 666 861 695 857 721 849 c 1
 439 242 l 1
377 -189 m 1
 465 0 l 1
 517 -15 575 -23 638 -23 c 0
 978 -23 1168 225 1168 511 c 0
 1168 712 1085 890 921 983 c 1
 1012 1179 l 1
 901 1236 l 1
 805 1031 l 1
 755 1044 699 1052 638 1052 c 0
 293 1052 100 805 100 513 c 0
 100 317 187 142 350 48 c 1
 266 -132 l 1
 377 -189 l 1
EndSplineSet
EndChar

StartChar: p
Encoding: 112 112 307
Width: 1262
VWidth: 0
GlyphClass: 2
Flags: W
LayerCount: 2
Fore
SplineSet
649 168 m 0
 459 168 380 328 380 515 c 0
 380 707 465 861 649 861 c 0
 833 861 916 707 916 515 c 0
 916 328 839 168 649 168 c 0
159 -400 m 1
 392 -400 l 1
 392 145 l 1
 408 85 524 -23 701 -23 c 0
 993 -23 1162 240 1162 525 c 0
 1162 809 992 1052 712 1052 c 0
 531 1052 410 944 392 873 c 1
 392 1026 l 1
 142 1026 l 1
 149 919 159 793 159 692 c 2
 159 -400 l 1
EndSplineSet
EndChar

StartChar: paragraph
Encoding: 182 182 308
Width: 1214
VWidth: 0
GlyphClass: 2
Flags: W
LayerCount: 2
Fore
SplineSet
393 -139 m 1
 596 -139 l 1
 596 1242 l 1
 731 1242 l 1
 731 -139 l 1
 921 -139 l 1
 921 1242 l 1
 1004 1242 l 1
 1004 1424 l 1
 598 1424 l 2
 320 1424 77 1354 77 1094 c 0
 77 893 227 755 393 739 c 1
 393 -139 l 1
EndSplineSet
EndChar

StartChar: parenleft
Encoding: 40 40 309
Width: 628
VWidth: 0
GlyphClass: 2
Flags: W
LayerCount: 2
Fore
SplineSet
397 -243 m 1
 619 -243 l 1
 460 15 348 320 348 581 c 0
 348 862 447 1154 619 1424 c 1
 389 1424 l 1
 223 1161 112 888 112 583 c 0
 112 293 237 0 397 -243 c 1
EndSplineSet
EndChar

StartChar: parenright
Encoding: 41 41 310
Width: 628
VWidth: 0
GlyphClass: 2
Flags: W
LayerCount: 2
Fore
SplineSet
18 -243 m 1
 252 -243 l 1
 409 11 516 280 516 591 c 0
 516 879 399 1178 237 1424 c 1
 12 1424 l 1
 185 1154 282 844 282 602 c 0
 282 300 173 6 18 -243 c 1
EndSplineSet
EndChar

StartChar: partialdiff
Encoding: 8706 8706 311
Width: 1167
VWidth: 0
GlyphClass: 2
Flags: W
LayerCount: 2
Fore
SplineSet
481 -24 m 0
 877 -24 1065 407 1065 828 c 0
 1065 1294 875 1501 565 1501 c 0
 447 1501 324 1461 237 1398 c 1
 251 1186 l 1
 353 1254 469 1312 549 1312 c 0
 713.453 1312 820 1162.55 820 929 c 1
 717.522 1000.45 641.666 1002 575.016 1002 c 0
 289.016 1002 53 749 53 427 c 0
 53 172 199 -24 481 -24 c 0
481 169 m 0
 365 169 294 270 294 423 c 0
 294 633 422 815 589 815 c 0
 686 815 769 731 806 646 c 1
 762 406 639 169 481 169 c 0
EndSplineSet
EndChar

StartChar: percent
Encoding: 37 37 312
Width: 1986
VWidth: 0
GlyphClass: 2
Flags: W
LayerCount: 2
Fore
SplineSet
1430 -27 m 0
 1654 -27 1793 135 1793 351 c 0
 1793 560 1655 730 1430 730 c 0
 1205 730 1067 560 1067 351 c 0
 1067 135 1206 -27 1430 -27 c 0
1430 123 m 0
 1321 123 1268 224 1268 351 c 0
 1268 468 1314 580 1430 580 c 0
 1546 580 1592 468 1592 351 c 0
 1592 224 1539 123 1430 123 c 0
446 -5 m 1
 640 -5 l 1
 1549 1409 l 1
 1354 1409 l 1
 446 -5 l 1
556 653 m 0
 780 653 919 815 919 1031 c 0
 919 1240 781 1410 556 1410 c 0
 331 1410 193 1240 193 1031 c 0
 193 815 332 653 556 653 c 0
556 803 m 0
 447 803 394 904 394 1031 c 0
 394 1148 440 1260 556 1260 c 0
 672 1260 718 1148 718 1031 c 0
 718 904 665 803 556 803 c 0
EndSplineSet
EndChar

StartChar: period
Encoding: 46 46 313
Width: 540
VWidth: 0
GlyphClass: 2
Flags: W
LayerCount: 2
Fore
SplineSet
119 0 m 1
 398 0 l 1
 398 262 l 1
 119 262 l 1
 119 0 l 1
EndSplineSet
EndChar

StartChar: periodcentered
Encoding: 183 183 314
Width: 444
VWidth: 0
GlyphClass: 2
Flags: W
LayerCount: 2
Fore
SplineSet
79 547 m 1
 358 547 l 1
 358 809 l 1
 79 809 l 1
 79 547 l 1
EndSplineSet
EndChar

StartChar: perthousand
Encoding: 8240 8240 315
Width: 2555
VWidth: 0
GlyphClass: 2
Flags: W
LayerCount: 2
Fore
SplineSet
2126 -43 m 0
 2350 -43 2489 119 2489 335 c 0
 2489 544 2351 714 2126 714 c 0
 1901 714 1763 544 1763 335 c 0
 1763 119 1902 -43 2126 -43 c 0
2126 107 m 0
 2017 107 1964 208 1964 335 c 0
 1964 452 2010 564 2126 564 c 0
 2242 564 2288 452 2288 335 c 0
 2288 208 2235 107 2126 107 c 0
1303 -43 m 0
 1527 -43 1666 119 1666 335 c 0
 1666 544 1528 714 1303 714 c 0
 1078 714 940 544 940 335 c 0
 940 119 1079 -43 1303 -43 c 0
1303 107 m 0
 1194 107 1141 208 1141 335 c 0
 1141 452 1187 564 1303 564 c 0
 1419 564 1465 452 1465 335 c 0
 1465 208 1412 107 1303 107 c 0
319 -21 m 1
 513 -21 l 1
 1422 1393 l 1
 1227 1393 l 1
 319 -21 l 1
429 637 m 0
 653 637 792 799 792 1015 c 0
 792 1224 654 1394 429 1394 c 0
 204 1394 66 1224 66 1015 c 0
 66 799 205 637 429 637 c 0
429 787 m 0
 320 787 267 888 267 1015 c 0
 267 1132 313 1244 429 1244 c 0
 545 1244 591 1132 591 1015 c 0
 591 888 538 787 429 787 c 0
EndSplineSet
EndChar

StartChar: plus
Encoding: 43 43 316
Width: 1265
VWidth: 0
GlyphClass: 2
Flags: W
LayerCount: 2
Fore
SplineSet
521 57 m 1
 742 57 l 1
 742 454 l 1
 1124 454 l 1
 1124 651 l 1
 743 651 l 1
 743 1047 l 1
 523 1047 l 1
 523 651 l 1
 141 651 l 1
 141 454 l 1
 521 454 l 1
 521 57 l 1
EndSplineSet
EndChar

StartChar: plusminus
Encoding: 177 177 317
Width: 1264
VWidth: 0
GlyphClass: 2
Flags: W
LayerCount: 2
Fore
SplineSet
189 0 m 1
 1076 0 l 1
 1076 172 l 1
 189 172 l 1
 189 0 l 1
518 249 m 1
 746 249 l 1
 746 557 l 1
 1070 557 l 1
 1070 749 l 1
 737 749 l 1
 737 1062 l 1
 513 1062 l 1
 513 749 l 1
 191 749 l 1
 191 557 l 1
 518 557 l 1
 518 249 l 1
EndSplineSet
EndChar

StartChar: product
Encoding: 8719 8719 318
Width: 1568
VWidth: 0
GlyphClass: 2
Flags: W
LayerCount: 2
Fore
SplineSet
217 -308 m 1
 476 -308 l 1
 476 1203 l 1
 1053 1203 l 1
 1053 -308 l 1
 1319 -308 l 1
 1319 1203 l 1
 1411 1203 l 1
 1446 1396 l 1
 59 1396 l 1
 93 1203 l 1
 217 1203 l 1
 217 -308 l 1
EndSplineSet
EndChar

StartChar: q
Encoding: 113 113 319
Width: 1245
VWidth: 0
GlyphClass: 2
Flags: W
LayerCount: 2
Fore
SplineSet
613 168 m 0
 423 168 346 328 346 515 c 0
 346 707 429 861 613 861 c 0
 797 861 882 707 882 515 c 0
 882 328 803 168 613 168 c 0
870 -400 m 1
 1103 -400 l 1
 1103 742 l 2
 1103 828 1106 934 1113 1026 c 1
 872 1026 l 1
 872 910 l 1
 792 1006 683 1052 584 1052 c 0
 272 1052 100 809 100 525 c 0
 100 240 259 -23 581 -23 c 0
 688 -23 792 25 870 95 c 1
 870 -400 l 1
EndSplineSet
EndChar

StartChar: question
Encoding: 63 63 320
Width: 1032
VWidth: 0
GlyphClass: 2
Flags: W
LayerCount: 2
Fore
SplineSet
291 0 m 1
 570 0 l 1
 570 262 l 1
 291 262 l 1
 291 0 l 1
317 393 m 1
 542 393 l 1
 542 412.68 541.827 431.208 541.827 448.667 c 0
 541.827 503.954 543.56 548.52 558 585 c 0
 644 799 919 847 919 1125 c 0
 919 1367 737 1484 504 1484 c 0
 397 1484 279 1459 163 1410 c 1
 163 1198 l 1
 265 1246 378 1278 472 1278 c 0
 590 1278 678 1234 678 1118 c 0
 678 915 317 802 317 543 c 2
 317 393 l 1
EndSplineSet
EndChar

StartChar: quotedbl
Encoding: 34 34 322
Width: 720
VWidth: 0
GlyphClass: 2
Flags: W
LayerCount: 2
Fore
SplineSet
465 958 m 1
 597 958 l 1
 644 1456 l 1
 414 1456 l 1
 465 958 l 1
129 958 m 1
 261 958 l 1
 308 1456 l 1
 78 1456 l 1
 129 958 l 1
EndSplineSet
EndChar

StartChar: quotedblbase
Encoding: 8222 8222 323
Width: 1024
VWidth: 0
GlyphClass: 2
Flags: W
LayerCount: 2
Fore
SplineSet
466 -223 m 1
 670 -223 l 1
 837 253 l 1
 577 253 l 1
 466 -223 l 1
130 -223 m 1
 339 -223 l 1
 500 253 l 1
 240 253 l 1
 130 -223 l 1
EndSplineSet
EndChar

StartChar: quotedblleft
Encoding: 8220 8220 324
Width: 1024
VWidth: 0
GlyphClass: 2
Flags: W
LayerCount: 2
Fore
SplineSet
603 959 m 1
 845 959 l 1
 957 1436 l 1
 750 1436 l 1
 603 959 l 1
193 959 m 1
 454 959 l 1
 567 1436 l 1
 359 1436 l 1
 193 959 l 1
EndSplineSet
EndChar

StartChar: quotedblright
Encoding: 8221 8221 325
Width: 1024
VWidth: 0
GlyphClass: 2
Flags: W
LayerCount: 2
Fore
SplineSet
584 959 m 1
 787 959 l 1
 955 1436 l 1
 696 1436 l 1
 584 959 l 1
221 959 m 1
 425 959 l 1
 592 1436 l 1
 330 1436 l 1
 221 959 l 1
EndSplineSet
EndChar

StartChar: quoteleft
Encoding: 8216 8216 326
Width: 553
VWidth: 0
GlyphClass: 2
Flags: W
LayerCount: 2
Fore
SplineSet
339 959 m 1
 449 1436 l 1
 245 1436 l 1
 79 959 l 1
 339 959 l 1
EndSplineSet
EndChar

StartChar: quoteright
Encoding: 8217 8217 327
Width: 553
VWidth: 0
GlyphClass: 2
Flags: W
LayerCount: 2
Fore
SplineSet
88 959 m 1
 291 959 l 1
 458 1436 l 1
 199 1436 l 1
 88 959 l 1
EndSplineSet
EndChar

StartChar: quotesinglbase
Encoding: 8218 8218 328
Width: 553
VWidth: 0
GlyphClass: 2
Flags: W
LayerCount: 2
Fore
SplineSet
72 -223 m 1
 279 -223 l 1
 445 253 l 1
 186 253 l 1
 72 -223 l 1
EndSplineSet
EndChar

StartChar: quotesingle
Encoding: 39 39 329
Width: 554
VWidth: 0
GlyphClass: 2
Flags: W
LayerCount: 2
Fore
SplineSet
168 926 m 1
 356 926 l 1
 391 1424 l 1
 129 1424 l 1
 168 926 l 1
EndSplineSet
EndChar

StartChar: r
Encoding: 114 114 330
Width: 780
VWidth: 0
GlyphClass: 2
Flags: W
LayerCount: 2
Fore
SplineSet
160 0 m 1
 396 0 l 1
 396 579 l 2
 396 761 499 851 634 851 c 0
 672 851 714 844 756 830 c 1
 756 1037 l 1
 719 1047 684 1052 653 1052 c 0
 544 1052 465 988 393 886 c 1
 393 1026 l 1
 142 1026 l 1
 142 1026 160 882 160 768 c 2
 160 0 l 1
EndSplineSet
EndChar

StartChar: radical
Encoding: 8730 8730 332
Width: 1314
VWidth: 0
GlyphClass: 2
Flags: W
LayerCount: 2
Fore
SplineSet
561 -144 m 1
 756 -144 l 1
 1210 1560 l 1
 996 1560 l 1
 637 231 l 1
 408 841 l 1
 49 783 l 1
 90 613 l 1
 90 613 249 642 252 643 c 1
 561 -144 l 1
EndSplineSet
EndChar

StartChar: registered
Encoding: 174 174 336
Width: 1829
VWidth: 0
GlyphClass: 2
Flags: W
LayerCount: 2
Fore
SplineSet
889 1483 m 0
 449 1483 84 1141 84 733 c 0
 84 321 443 -23 897 -23 c 0
 1340 -23 1703 319 1703 730 c 0
 1703 1136 1340 1483 889 1483 c 0
892 1363 m 0
 1269 1363 1559 1090 1559 728 c 0
 1559 371 1270 96 895 96 c 0
 517 96 227 372 227 733 c 0
 227 1091 515 1363 892 1363 c 0
538 288 m 1
 749 288 l 1
 749 652 l 1
 840 652 l 1
 888 626 920 572 1055 288 c 1
 1316 288 l 1
 1166 548 1109 636 1035 685 c 1
 1209 717 1266 826 1266 939 c 0
 1266 1116 1125 1214 837 1214 c 2
 538 1214 l 1
 538 288 l 1
749 820 m 1
 749 1045 l 1
 841 1045 l 2
 999 1045 1055 1034 1055 926 c 0
 1055 829 978 820 847 820 c 2
 749 820 l 1
EndSplineSet
EndChar

StartChar: ring
Encoding: 730 730 337
Width: 605
VWidth: 0
GlyphClass: 2
Flags: W
LayerCount: 2
Fore
SplineSet
304 1099 m 0
 458 1099 534 1202 534 1306 c 0
 534 1411 456 1519 304 1519 c 0
 150 1519 72 1411 72 1306 c 0
 72 1202 146 1099 304 1099 c 0
304 1206 m 0
 238 1206 206 1258 206 1309 c 0
 206 1361 238 1412 302 1412 c 0
 366 1412 399 1358 399 1306 c 0
 399 1255 368 1206 304 1206 c 0
EndSplineSet
EndChar

StartChar: s
Encoding: 115 115 339
Width: 1022
VWidth: 0
GlyphClass: 2
Flags: W
LayerCount: 2
Fore
SplineSet
545 -23 m 0
 721 -23 942 58 942 293 c 0
 942 525 776 557 579 618 c 0
 415 669 363 690 362 760 c 0
 362 825 426 862 528 862 c 0
 607 862 709 839 821 790 c 1
 884 951 l 1
 789 1012 646 1050 508 1050 c 0
 308 1050 121 969 121 756 c 0
 121 529 298 481 503 421 c 0
 665 374 703 355 703 289 c 0
 703 201 624 168 511 168 c 0
 386 168 249 219 172 273 c 1
 116 98 l 1
 191 36 344 -23 545 -23 c 0
EndSplineSet
EndChar

StartChar: section
Encoding: 167 167 345
Width: 1097
VWidth: 0
GlyphClass: 2
Flags: W
LayerCount: 2
Fore
SplineSet
490 -23 m 0
 708 -23 891 71 891 287 c 0
 891 392 842 463 765 510 c 1
 844 573 912 649 912 744 c 0
 912 887 777 959 641 1030 c 1
 501 1096 427 1145 427 1207 c 0
 427 1280 495 1291 578 1291 c 0
 669 1291 777 1265 835 1250 c 1
 835 1435 l 1
 744 1467 647 1483 556 1483 c 0
 353 1483 181 1397 181 1195 c 0
 181 1089 223 1025 298 967 c 1
 216 912 149 828 149 734 c 0
 149 617 238 526 363 465 c 0
 581 358 646 334 646 281 c 0
 646 198 574 168 480 168 c 0
 384 168 264 200 174 237 c 1
 174 37 l 1
 277 -3 387 -23 490 -23 c 0
605 601 m 1
 465 664 400 685 400 757 c 0
 400 814 424 838 463 870 c 1
 577 816 651 795 651 710 c 0
 651 660 628 627 605 601 c 1
EndSplineSet
EndChar

StartChar: semicolon
Encoding: 59 59 346
Width: 540
VWidth: 0
GlyphClass: 2
Flags: W
LayerCount: 2
Fore
SplineSet
178 879 m 1
 425 879 l 1
 425 1141 l 1
 178 1141 l 1
 178 879 l 1
72 -240 m 1
 271 -240 l 1
 447 259 l 1
 180 259 l 1
 72 -240 l 1
EndSplineSet
EndChar

StartChar: seven
Encoding: 55 55 347
Width: 1264
VWidth: 0
GlyphClass: 2
Flags: W
LayerCount: 2
Fore
SplineSet
322 0 m 1
 581 0 l 1
 1142 1272 l 1
 1142 1456 l 1
 151 1456 l 1
 151 1257 l 1
 863 1257 l 1
 322 0 l 1
EndSplineSet
EndChar

StartChar: six
Encoding: 54 54 348
Width: 1264
VWidth: 0
GlyphClass: 2
Flags: W
LayerCount: 2
Fore
SplineSet
676 184 m 0
 546 184 419 292 419 475 c 0
 419 639 522 760 687 760 c 0
 845 760 925 633 925 471 c 0
 925 309 828 184 676 184 c 0
681 -23 m 0
 984 -23 1174 191 1174 474 c 0
 1174 770 989 958 706 958 c 0
 591 958 483 913 404 800 c 1
 405 824 406 849 409 872 c 0
 436 1105 558 1276 736 1276 c 0
 840 1276 933 1243 1018 1176 c 1
 1098 1356 l 1
 1007 1440 882 1483 734 1483 c 0
 350 1483 150 1128 150 697 c 0
 150 267 324 -23 681 -23 c 0
EndSplineSet
EndChar

StartChar: slash
Encoding: 47 47 349
Width: 761
VWidth: 0
GlyphClass: 2
Flags: W
LayerCount: 2
Fore
SplineSet
-23 -169 m 1
 184 -169 l 1
 808 1456 l 1
 596 1456 l 1
 -23 -169 l 1
EndSplineSet
EndChar

StartChar: sterling
Encoding: 163 163 351
Width: 1264
VWidth: 0
GlyphClass: 2
Flags: W
LayerCount: 2
Fore
SplineSet
168 0 m 1
 1158 0 l 1
 1158 195 l 1
 496 195 l 1
 558 277 581 496 587 612 c 0
 588 632 588 648 588 661 c 1
 892 661 l 1
 892 838 l 1
 580 838 l 1
 576 878 575 920 575 955 c 0
 575 1195 657 1290 837 1290 c 0
 932 1290 1013 1263 1091 1227 c 1
 1147 1410 l 1
 1058 1460 952 1483 820 1483 c 0
 419 1483 336 1220 336 901 c 2
 336 838 l 1
 167 838 l 1
 167 661 l 1
 339 661 l 1
 339 616 l 2
 339 335 246 252 165 179 c 1
 168 0 l 1
EndSplineSet
EndChar

StartChar: summation
Encoding: 8721 8721 352
Width: 1264
VWidth: 0
GlyphClass: 2
Flags: W
LayerCount: 2
Fore
SplineSet
28 -308 m 1
 1206 -308 l 1
 1206 -105 l 1
 381 -105 l 1
 909 556 l 1
 397 1200 l 1
 1163 1200 l 1
 1163 1396 l 1
 50 1396 l 1
 50 1272 l 1
 622 553 l 1
 28 -180 l 1
 28 -308 l 1
EndSplineSet
EndChar

StartChar: t
Encoding: 116 116 353
Width: 795
VWidth: 0
GlyphClass: 2
Flags: W
LayerCount: 2
Fore
SplineSet
725 1 m 1
 725 182 l 1
 495 182 444 191 444 360 c 2
 444 868 l 1
 709 868 l 1
 709 1026 l 1
 444 1026 l 1
 444 1340 l 1
 217 1271 l 1
 217 1026 l 1
 40 1026 l 1
 40 868 l 1
 209 868 l 1
 209 378 l 2
 209 4 415 1 679 1 c 2
 725 1 l 1
EndSplineSet
EndChar

StartChar: tbar
Encoding: 359 359 354
Width: 795
VWidth: 0
GlyphClass: 2
Flags: W
LayerCount: 2
Fore
SplineSet
681 685 m 1
 64 685 l 1
 64 514 l 1
 681 514 l 1
 681 685 l 1
EndSplineSet
Refer: 353 116 N 1 0 0 1 0 0 2
EndChar

StartChar: thorn
Encoding: 254 254 357
Width: 1230
VWidth: 0
GlyphClass: 2
Flags: W
LayerCount: 2
Fore
SplineSet
622 167 m 0
 453 167 366 306 366 494 c 0
 366 685 433 859 630 859 c 0
 820 859 882 696 882 521 c 0
 882 335 805 167 622 167 c 0
143 -400 m 1
 365 -400 l 1
 366 59 l 1
 444 8 543 -23 650 -23 c 0
 972 -23 1130 240 1130 525 c 0
 1130 808 974 1051 626 1051 c 0
 534 1051 447 1015 368 962 c 1
 371 1542 l 1
 143 1542 l 1
 143 -400 l 1
EndSplineSet
EndChar

StartChar: three
Encoding: 51 51 358
Width: 1264
VWidth: 0
GlyphClass: 2
Flags: W
LayerCount: 2
Fore
SplineSet
630 -23 m 0
 902 -23 1138 143 1138 416 c 0
 1138 590 1017 736 819 774 c 1
 1017 806 1102 942 1102 1093 c 0
 1102 1348 871 1483 633 1483 c 0
 405 1483 223 1407 112 1254 c 1
 255 1085 l 1
 342 1219 472 1276 620 1276 c 0
 751 1276 848 1219 848 1099 c 0
 848 917 739 860 537 860 c 0
 529 860 468 860 434 861 c 1
 439 654 l 1
 481 657 529 657 553 657 c 0
 762 657 890 591 890 421 c 0
 890 275 770 184 621 184 c 0
 464 184 325 255 252 382 c 1
 126 213 l 1
 197 57 391 -23 630 -23 c 0
EndSplineSet
EndChar

StartChar: threequarters
Encoding: 190 190 359
Width: 2455
VWidth: 0
GlyphClass: 2
Flags: W
HStem: 547 166<521.5 579.5 521.5 631.5> 908 177<399 483 399 486 399 538> 1247 166<498 561.5>
VStem: 630 199<1156.5 1192.5> 652 197<782.5 849.5>
LayerCount: 2
Fore
SplineSet
753 0 m 1
 988 0 l 1
 1875 1409 l 1
 1641 1409 l 1
 753 0 l 1
2000 0 m 1
 2188 0 l 1
 2188 175 l 1
 2304 175 l 1
 2304 323 l 1
 2188 323 l 1
 2188 810 l 1
 2004 810 l 1
 1646 303 l 1
 1646 175 l 1
 2000 175 l 1
 2000 0 l 1
1852 323 m 1
 1998 552 l 1
 1998 323 l 1
 1852 323 l 1
550 547 m 0
 713 547 849 630 849 813 c 0
 849 893 806 958 709 1001 c 1
 804 1038 829 1125 829 1188 c 0
 829 1334 685 1413 546 1413 c 0
 430 1413 316 1372 228 1317 c 1
 294 1169 l 1
 372 1217 462 1247 534 1247 c 0
 589 1247 630 1220 630 1165 c 0
 630 1105 567 1085 483 1085 c 2
 399 1085 l 1
 399 908 l 1
 486 908 l 2
 590 908 652 883 652 816 c 0
 652 749 611 713 548 713 c 0
 495 713 400 730 304 791 c 1
 237 641 l 1
 334 580 448 547 550 547 c 0
EndSplineSet
EndChar

StartChar: threesuperior
Encoding: 179 179 360
Width: 1190
VWidth: 0
GlyphClass: 2
Flags: W
LayerCount: 2
Fore
SplineSet
485 547 m 0
 648 547 784 630 784 813 c 0
 784 893 741 958 644 1001 c 1
 739 1038 764 1125 764 1188 c 0
 764 1334 620 1413 481 1413 c 0
 365 1413 251 1372 163 1317 c 1
 229 1169 l 1
 307 1217 397 1247 469 1247 c 0
 524 1247 565 1220 565 1165 c 0
 565 1105 502 1085 418 1085 c 2
 334 1085 l 1
 334 908 l 1
 421 908 l 2
 525 908 587 883 587 816 c 0
 587 749 546 713 483 713 c 0
 430 713 335 730 239 791 c 1
 172 641 l 1
 269 580 383 547 485 547 c 0
EndSplineSet
EndChar

StartChar: tilde
Encoding: 732 732 361
Width: 663
VWidth: 0
GlyphClass: 2
Flags: W
LayerCount: 2
Fore
SplineSet
-16 1147 m 1
 136 1147 l 1
 143 1221 166 1248 195 1248 c 0
 258 1248 387 1142 482 1142 c 0
 614 1142 665 1280 679 1428 c 1
 524 1428 l 1
 516 1363 511 1323 470 1323 c 0
 411 1323 300 1428 185 1428 c 0
 59 1428 -6 1303 -16 1147 c 1
EndSplineSet
EndChar

StartChar: trademark
Encoding: 8482 8482 362
Width: 1869
VWidth: 0
GlyphClass: 2
Flags: W
LayerCount: 2
Fore
SplineSet
296 643 m 1
 480 643 l 1
 480 1264 l 1
 727 1264 l 1
 728 1424 l 1
 53 1424 l 1
 53 1264 l 1
 296 1264 l 1
 296 643 l 1
762 643 m 1
 939 643 l 1
 939 1058 l 1
 1118 643 l 1
 1253 643 l 1
 1450 1068 l 1
 1450 643 l 1
 1632 643 l 1
 1632 1424 l 1
 1399 1424 l 1
 1198 962 l 1
 1005 1424 l 1
 762 1424 l 1
 762 643 l 1
EndSplineSet
EndChar

StartChar: two
Encoding: 50 50 363
Width: 1264
VWidth: 0
GlyphClass: 2
Flags: W
LayerCount: 2
Fore
SplineSet
151 0 m 1
 1108 0 l 1
 1108 199 l 1
 465 199 l 1
 465 199 1103 706 1103 1065 c 0
 1103 1339 914 1481 641 1481 c 0
 422 1481 238 1401 143 1243 c 1
 288 1103 l 1
 371 1226 499 1276 636 1276 c 0
 765 1276 858 1201 858 1068 c 0
 858 799 354 384 151 178 c 1
 151 0 l 1
EndSplineSet
EndChar

StartChar: twosuperior
Encoding: 178 178 364
Width: 1190
VWidth: 0
GlyphClass: 2
Flags: W
LayerCount: 2
Fore
SplineSet
245 564 m 1
 829 564 l 1
 829 741 l 1
 518 741 l 1
 686 867 840 996 840 1158 c 0
 840 1335 707 1413 549 1413 c 0
 445 1413 329 1379 234 1317 c 1
 299 1169 l 1
 374 1215 466 1247 536 1247 c 0
 600 1247 646 1221 646 1156 c 0
 646 1093 588 1000 245 725 c 1
 245 564 l 1
EndSplineSet
EndChar

StartChar: u
Encoding: 117 117 365
Width: 1188
VWidth: 0
GlyphClass: 2
Flags: W
LayerCount: 2
Fore
SplineSet
527 -23 m 0
 704 -23 785 97 805 154 c 1
 809 0 l 1
 1052 0 l 1
 1052 0 1041 213 1041 272 c 2
 1041 1026 l 1
 805 1026 l 1
 805 412 l 2
 805 244 726 168 574 168 c 0
 447 168 366 235 366 382 c 2
 366 1026 l 1
 132 1026 l 1
 132 379 l 2
 132 138 269 -23 527 -23 c 0
EndSplineSet
EndChar

StartChar: underscore
Encoding: 95 95 375
Width: 998
VWidth: 0
GlyphClass: 2
Flags: W
LayerCount: 2
Fore
SplineSet
-12 -257 m 1
 1010 -257 l 1
 1010 -71 l 1
 -12 -71 l 1
 -12 -257 l 1
EndSplineSet
EndChar

StartChar: uni00AD
Encoding: 173 173 376
Width: 728
VWidth: 0
GlyphClass: 2
Flags: W
LayerCount: 2
Fore
SplineSet
44 1196 m 1
 661 1196 l 1
 661 1367 l 1
 44 1367 l 1
 44 1196 l 1
EndSplineSet
EndChar

StartChar: uni2015
Encoding: 8213 8213 397
Width: 4096
VWidth: 0
GlyphClass: 2
Flags: W
LayerCount: 2
Fore
SplineSet
56 458 m 1
 56 639 l 1
 4040 639 l 1
 4040 458 l 1
 56 458 l 1
EndSplineSet
EndChar

StartChar: v
Encoding: 118 118 401
Width: 1114
VWidth: 0
GlyphClass: 2
Flags: W
LayerCount: 2
Fore
SplineSet
448 0 m 1
 664 0 l 1
 1098 1026 l 1
 843 1026 l 1
 646 482 l 1
 566 260 l 1
 482 482 l 1
 278 1026 l 1
 16 1026 l 1
 448 0 l 1
EndSplineSet
EndChar

StartChar: w
Encoding: 119 119 402
Width: 1689
VWidth: 0
GlyphClass: 2
Flags: W
LayerCount: 2
Fore
SplineSet
392 0 m 1
 593 0 l 1
 799 586 l 1
 848 724 l 1
 893 586 l 1
 1087 0 l 1
 1287 0 l 1
 1665 1026 l 1
 1444 1026 l 1
 1247 415 l 1
 1206 286 l 1
 1163 419 l 1
 969 1026 l 1
 763 1026 l 1
 566 441 l 1
 515 288 l 1
 464 447 l 1
 277 1026 l 1
 24 1026 l 1
 392 0 l 1
EndSplineSet
EndChar

StartChar: x
Encoding: 120 120 407
Width: 1044
VWidth: 0
GlyphClass: 2
Flags: W
LayerCount: 2
Fore
SplineSet
20 0 m 1
 268 0 l 1
 524 349 l 1
 764 0 l 1
 1024 0 l 1
 658 532 l 1
 1021 1026 l 1
 777 1026 l 1
 526 685 l 1
 299 1026 l 1
 38 1026 l 1
 391 502 l 1
 20 0 l 1
EndSplineSet
EndChar

StartChar: y
Encoding: 121 121 408
Width: 1129
VWidth: 0
GlyphClass: 2
Flags: W
LayerCount: 2
Fore
SplineSet
232 -406 m 1
 444 -364 588 -265 673 -49 c 2
 1101 1026 l 1
 858 1026 l 1
 582 271 l 1
 284 1026 l 1
 32 1026 l 1
 470 21 l 1
 460 -13 l 2
 435 -95 359 -185 133 -246 c 1
 232 -406 l 1
EndSplineSet
EndChar

StartChar: yen
Encoding: 165 165 412
Width: 1264
VWidth: 0
GlyphClass: 2
Flags: W
LayerCount: 2
Fore
SplineSet
1108 272 m 1
 1108 433 l 1
 687 433 l 1
 687 539 l 1
 1106 539 l 1
 1106 706 l 1
 138 706 l 1
 138 539 l 1
 544 539 l 1
 544 433 l 1
 138 433 l 1
 138 272 l 1
 1108 272 l 1
EndSplineSet
Refer: 127 89 N 1 0 0 1 -19 0 2
EndChar

StartChar: z
Encoding: 122 122 414
Width: 1016
VWidth: 0
GlyphClass: 2
Flags: W
LayerCount: 2
Fore
SplineSet
118 0 m 1
 948 0 l 1
 926 188 l 1
 421 188 l 1
 915 903 l 1
 915 1026 l 1
 140 1026 l 1
 140 837 l 1
 613 837 l 1
 118 125 l 1
 118 0 l 1
EndSplineSet
EndChar

StartChar: zero
Encoding: 48 48 418
Width: 1264
VWidth: 0
GlyphClass: 2
Flags: W
LayerCount: 2
Fore
SplineSet
633 -23 m 0
 969 -23 1140 287 1140 739 c 0
 1140 1191 968 1483 635 1483 c 0
 301 1483 124 1205 124 739 c 0
 124 285 303 -23 633 -23 c 0
637 184 m 0
 436 184 372 418 372 738 c 0
 372 1019 436 1276 637 1276 c 0
 831 1276 892 1018 892 738 c 0
 892 418 830 184 637 184 c 0
EndSplineSet
EndChar

StartChar: uni007F
Encoding: 127 127 419
Width: 1521
VWidth: 0
Flags: HW
LayerCount: 2
UndoRedoHistory
Layer: 1
Undoes
EndUndoes
Redoes
EndRedoes
EndUndoRedoHistory
Fore
SplineSet
188 0 m 1
 188 1456 l 1
 1333 1456 l 1
 1333 0 l 1
 188 0 l 1
360 1330 m 1
 360 124 l 1
 1161 124 l 1
 1161 1330 l 1
 360 1330 l 1
EndSplineSet
EndChar
